<svg version="1.1" id="Layer_1" xmlns="http://www.w3.org/2000/svg" x="0" y="0" viewBox="0 0 24 24" xml:space="preserve"><style>.st0{fill:#b60e3f}</style><path class="st0" d="M8.97 5.97c.11.05.21.1.32.15v1.57c0 .26.41.27.41 0V6.32c.11.06.23.11.34.17v1.44c0 .05.01.08.03.11.05.13.18.23.3.3.27.14.58.21.87.25.4.06.8.07 1.2.05.37-.02.77-.07 1.12-.21.22-.09.48-.22.52-.47V6.44c.33-.19.66-.37 1-.56.12-.07.14-.29 0-.36-.34-.15-.67-.3-1.01-.46-.54-.24-1.07-.48-1.61-.73-.12-.06-.25-.11-.37-.17-.05-.02-.1-.03-.15-.02-.01 0-.02 0-.03.01-.01 0-.01 0-.02.01h-.01c-.33.16-.66.32-.99.49-.53.26-1.05.52-1.58.78-.1.06-.22.12-.34.18-.13.07-.13.29 0 .36zm4.68 1.95s-.01.01 0 0c-.01.01-.01.01 0 0-.01.01-.02.02-.03.02l-.06.03c-.02.02-.04.03-.06.04-.01 0-.02.01-.02.01-.01 0-.03.01-.03.01-.25.09-.52.14-.78.17-.62.06-1.29.05-1.89-.14-.03-.01-.05-.02-.08-.03-.01 0-.01-.01-.02-.01h-.01a.523.523 0 01-.15-.07c-.01-.01-.02-.02-.03-.02l-.02-.02-.01-.01c.01-.01.03-.02.04-.03.01 0 .01-.01.02-.01.04-.03.09-.05.13-.07 0 0 .01 0 .02-.01h.01c.01 0 .01 0 .02-.01.03-.01.05-.02.08-.03.06-.02.12-.04.18-.05.14-.03.27-.06.41-.08.34-.05.7-.05 1.04-.03.32.02.65.06.96.16l.09.03s.01 0 .02.01c.01 0 .03.02.04.02.05.02.09.05.13.08l.01.01c0 .01.01.01.02.02-.01-.01-.02 0-.03.01zm-.93-.74c-.39-.05-.79-.05-1.18-.01-.33.03-.66.08-.97.2-.04.01-.07.03-.11.05V6.38c.03-.02.06-.03.09-.04.03-.01.05-.03.08-.04.01 0 .02-.01.03-.01h.01c.06-.03.13-.05.19-.07.16-.05.32-.1.49-.13.4-.08.82-.11 1.22-.05.15.02.33.06.48.11.07.02.14.05.21.07.01 0 .03.01.04.02h.02c.03.01.06.03.09.04.09.05.19.1.28.15v.99c-.31-.15-.64-.21-.97-.24zm-2.56-1.7c.53-.26 1.05-.52 1.58-.78.09-.04.17-.09.26-.13.3.14.6.27.9.41.54.24 1.07.48 1.61.73.01 0 .01.01.02.01-.21.12-.42.24-.63.35-.32-.22-.72-.36-1.1-.43-.78-.14-1.63-.04-2.36.28-.1.05-.21.09-.31.15-.2-.1-.4-.19-.6-.29.22-.09.43-.2.63-.3z"/><path class="st0" d="M21.44 19.25h-.79v-1.2c0-.17-.14-.31-.31-.31h-.45v-6.66h.44c.07 0 .14-.03.19-.07.06-.05.11-.12.11-.2V9.58h.6c.05.01.11 0 .16-.02.07-.03.12-.07.15-.13.03-.05.04-.1.04-.15 0-.11-.06-.2-.14-.26l-.01-.01-.93-.69c-.74-.55-1.48-1.11-2.22-1.66-.9-.67-1.79-1.34-2.69-2.01-.77-.58-1.55-1.16-2.32-1.74-.25-.19-.51-.38-.76-.57-.12-.09-.24-.19-.36-.27 0 0-.01-.01-.02-.01a.29.29 0 00-.31 0l-.93.69c-.71.54-1.45 1.1-2.19 1.65-.9.67-1.8 1.34-2.69 2.01-.78.58-1.55 1.16-2.32 1.74-.38.28-.76.56-1.13.84 0 0-.01.01-.02.01-.1.08-.18.21-.14.35.04.13.16.23.3.23h.65v1.2c0 .17.14.31.31.31h.45v6.66h-.45c-.17 0-.31.14-.31.31v1.2h-.79c-.17 0-.31.14-.31.31v2.13c0 .16.15.3.31.3h18.87c.07 0 .14-.03.19-.07.06-.05.11-.12.11-.2v-2.16c.02-.17-.13-.32-.29-.32zm-1.41 0h-2.4v-.89h2.4v.89zm-.75-2.13v.59h-.89v-6.04c0-.19.01-.39.01-.59h.89v6.04zm.75-6.65h-2.41v-.89h2.4v.89zM3.78 8.84C4.52 8.29 5.26 7.73 6 7.18c.9-.67 1.8-1.34 2.69-2.01.77-.58 1.55-1.16 2.32-1.74.25-.19.51-.38.76-.57.08-.05.16-.11.23-.16.26.19.51.38.77.57.74.55 1.48 1.11 2.22 1.66.9.67 1.79 1.34 2.69 2.01.77.58 1.55 1.16 2.32 1.74l.37.28H3.63l.15-.12zm.19.74h2.4v.89h-2.4v-.89zm1.65 1.57v6.55h-.9v-5.98c0-.19.01-.38.01-.57h.89zm.61.58v-.64h.44c.07 0 .14-.03.19-.07.06-.05.11-.12.11-.2V9.59h10.02v1.2c0 .17.14.31.31.31h.45v6.66h-.44c-.17 0-.31.14-.31.31v1.2H6.99v-1.2c0-.17-.14-.31-.31-.31h-.45v-6.03zm-2.26 6.63h2.4v.89h-2.4v-.89zm17.16 3.02H2.87v-1.51h18.26v1.51z"/><path class="st0" d="M7.47 17.62v.01c0 .18.2.37.39.3.44-.17.91-.29 1.37-.35h.04c.03 0 .05-.01.08-.01.05 0 .09-.01.14-.01.11-.01.22-.01.33-.02.21 0 .42.01.62.03.05 0 .1.01.15.02.02 0 .04 0 .06.01 0 0 .03 0 .05.01h.02c.08.01.17.03.25.04.16.03.31.06.46.1.17.04.33.08.5.14.06.02.12.02.17 0 .05.02.11.02.17 0 .13-.04.26-.08.4-.11.14-.04.29-.07.43-.1.09-.02.18-.03.27-.05.04-.01.07-.01.11-.02h.03c.03 0 .06-.01.09-.01.41-.05.82-.06 1.23-.02.03 0 .05.01.08.01h.04c.04.01.08.01.13.02.09.02.19.03.28.05.16.03.31.07.47.11.17.05.34.1.51.16.19.08.39-.11.39-.3v-5.41c0-.25.01-.5 0-.75v-.01a.37.37 0 00-.04-.15l-.01-.01c-.02-.03-.04-.05-.06-.07-.01-.01-.02-.01-.02-.02 0 0-.01 0-.01-.01 0 0-.01 0-.01-.01-.01 0-.02-.01-.02-.01a.185.185 0 00-.07-.02c-.51-.14-1.02-.24-1.54-.3a4.5 4.5 0 00-1.1-.02c-.38.04-.76.1-1.14.19-.19.04-.39.09-.58.14-.51-.15-1.05-.25-1.58-.31-.75-.09-1.5.01-2.23.17-.19.04-.39.09-.58.14-.06.02-.11.05-.15.1l-.01.01-.02.02c0 .01-.01.01-.01.02-.01.01-.01.02-.02.04 0 .01-.01.02-.01.04v5.48c-.05.24-.06.49-.05.74zm5.01-5.41c0-.17.01-.34.01-.52.08-.02.15-.04.23-.05.16-.04.32-.07.47-.1.09-.02.17-.03.26-.05.04-.01.09-.01.13-.02h.06c.02 0 .05-.01.05-.01.36-.04.72-.05 1.09-.01.04 0 .09.01.13.02h.07c.09.01.19.03.28.04.17.03.33.06.5.1.11.02.23.05.34.08v5.5c-.35-.11-.71-.18-1.07-.23-.81-.11-1.62-.02-2.41.16l-.12.03v-4.94zm-4.39.01v-.52c.08-.02.15-.04.23-.05.16-.04.31-.07.47-.1.09-.02.17-.03.26-.04.04-.01.09-.01.13-.02.02 0 .04-.01.06-.01h.04c.36-.04.72-.06 1.09-.02.04 0 .09.01.13.01.02 0 .03 0 .05.01h.03c.09.01.19.03.28.04.17.03.33.06.5.1.12.03.23.05.34.08v5.46c-.36-.09-.72-.15-1.09-.19-.81-.09-1.61-.02-2.39.2-.04.01-.08.02-.13.04v-4.99z"/><path class="st0" d="M8.81 13.08h2.17c.26 0 .27-.41 0-.41H8.81c-.27-.01-.27.41 0 .41zm0 1.3h2.17c.26 0 .27-.41 0-.41H8.81c-.27 0-.27.41 0 .41zm0 1.3h2.17c.26 0 .27-.41 0-.41H8.81c-.27 0-.27.41 0 .41zm4.39-2.6h2.17c.26 0 .27-.41 0-.41H13.2c-.27-.01-.27.41 0 .41zm0 1.3h2.17c.26 0 .27-.41 0-.41H13.2c-.27 0-.27.41 0 .41zm0 1.3h2.17c.26 0 .27-.41 0-.41H13.2c-.27 0-.27.41 0 .41z"/></svg>