<svg version="1.1" id="Layer_1" xmlns="http://www.w3.org/2000/svg" x="0" y="0" viewBox="0 0 24 24" xml:space="preserve"><style>.st0{fill:#b60e3f}</style><path class="st0" d="M16.03 9.29c.12 0 .22-.23.22-.52 0-.29-.1-.52-.22-.52s-.22.23-.22.52c0 .29.1.52.22.52z"/><ellipse class="st0" cx="18.13" cy="8.77" rx=".22" ry=".52"/><path class="st0" d="M17.25 10.99c-.01 0-.02 0-.04.01-.03 0-.07.01-.1.01-.06-.01-.11-.01-.16-.01h-.03c-.03-.01-.06-.01-.1-.02-.05-.01-.1-.03-.16-.05-.02-.01-.04-.02-.06-.02h-.01c-.01-.01-.03-.01-.04-.02-.09-.04-.17-.09-.25-.14-.04-.02-.07-.05-.1-.07 0 0-.01-.01-.02-.01 0 0-.01 0-.01-.01h-.01c-.02-.02-.05-.04-.07-.06-.09-.08-.25-.1-.33 0-.08.09-.1.24 0 .33.24.22.55.4.86.49.51.15 1.04.01 1.49-.25.12-.07.24-.15.35-.24.1-.08.09-.25 0-.33-.1-.09-.23-.08-.33 0 0 0-.01 0-.01.01 0 0-.01 0-.01.01-.06.04-.11.08-.17.11-.08.05-.16.09-.24.13l-.06.03c-.01 0-.02.01-.04.01-.05.02-.11.04-.17.06-.07 0-.12.02-.18.03z"/><path class="st0" d="M21.81 8.84c-.16-.25-.4-.43-.68-.51-.18-.05-.37-.05-.55-.05V6.44c0-.03-.01-.06-.02-.08v-.99c.22-.09.44-.23.61-.39.17-.17.3-.38.34-.62.04-.28-.02-.57-.17-.82-.17-.28-.44-.52-.73-.65-.07-.03-.13-.03-.2-.03h-4.17c-.13 0-.26 0-.38.04-.24.09-.45.25-.57.48-.08.15-.12.31-.17.47-.01.03-.01.06-.02.09a1.32 1.32 0 00-.39-.06c-.41 0-.79.17-1.03.5-.07.1-.13.2-.13.32v1.77a3.39 3.39 0 00-.56-.37c-.35-.19-.73-.32-1.12-.38-.3-.06-.58-.06-.87-.06h-.63c-.18 0-.36.01-.53.04-.12-.04-.24-.07-.36-.1-.04-.13-.08-.26-.11-.39-.07-.2-.11-.53-.36-.58a.37.37 0 00-.42.18l-.09.18c-.1.21-.21.42-.31.63-.04.08-.08.16-.12.23-.1-.03-.21-.05-.32-.05a.53.53 0 00-.47.3c-.09.19-.08.42-.03.62v.02c-.3.18-.6.36-.91.55-.15.09-.38.18-.43.37-.06.21.07.4.27.46.08.02.17.05.25.07.14.04.28.07.43.11-.1.33-.14.68-.14 1.03v1.6c-.09.06-.18.13-.26.21-.14.15-.25.35-.3.55-.09-.07-.19-.14-.3-.19-.17-.07-.32-.09-.49-.01a.98.98 0 00-.28.21c-.22-.12-.44-.26-.7-.2-.3.07-.59.32-.63.63-.03.2.01.38.1.56.08.18.17.35.29.5.07.08.14.16.22.23-.3.19-.57.43-.79.7-.17.21-.31.44-.43.68-.32.02-.63.16-.85.39-.33.36-.4.92-.12 1.33.17.25.43.42.71.5.08.36.21.7.4 1.01.34.57.84 1.04 1.44 1.32.01.01.02.01.03.02a1.734 1.734 0 00-.9 1.5c0 .13.11.24.24.24h8.05a.202.202 0 00.21 0h.62c.24 0 .47.01.71 0h6.07c.28 0 .55.01.83 0h.01c.05 0 .11-.02.15-.06.01 0 .01-.01.02-.02l.02-.02c.03-.04.05-.08.05-.12v-4.75c0-.3-.03-.6-.1-.89-.12-.51-.37-.98-.7-1.38-.27-.32-.59-.59-.95-.79.78-.46 1.35-1.26 1.47-2.16.01-.06.02-.13.02-.19h.21c.59-.01 1.13-.45 1.21-1.04.03-.29-.03-.6-.19-.85zM14 4.72c0-.01.01-.01.01-.02.01-.02.02-.04.03-.05.01-.01.02-.03.02-.03l.06-.06c.01-.01.02-.02.04-.03l.09-.06c.02-.01.03-.02.05-.03.01 0 .01 0 .01-.01 0 0 .01 0 .02-.01.04-.02.09-.03.13-.04.03-.01.05-.01.08-.01h.24c.01 0 .02 0 .03.01l.1.03c.01 0 .03.01.04.01.04.02.07.04.11.06.15.14.4.04.4-.17v-.06c0-.03.01-.05.01-.08l.06-.26c.02-.05.03-.11.05-.16.01-.03.02-.05.03-.08v-.01c0-.01.01-.02.01-.03.01-.03.04-.09.06-.1 0 0-.01.01-.01.02l.01-.01.02-.02.05-.05c.01-.01.03-.02.04-.03.03-.02.06-.04.09-.05.01 0 .01-.01.02-.01.02-.01.04-.02.07-.02.01 0 .04 0 .06-.01h3.59c.25 0 .51.01.76 0 .01 0 .01.01.02.01.03.02.06.03.09.05.03.02.05.04.08.06 0 0 .01 0 .02.01 0 0 .01 0 .01.01l.02.02c.02.02.04.03.06.05.04.04.08.08.12.13.01.01.01.02.02.03v.01c.02.02.03.05.05.07a.3.3 0 01.04.08c.01.01.01.03.02.04v.01c.02.06.04.12.05.18v.17c-.01.03-.01.06-.02.08 0 .01-.01.03-.01.04.05.02.04.03.04.03l-.03.06c-.01.02-.03.05-.04.07-.01.01-.01.02-.02.03l-.12.12-.03.03c-.01 0-.01.01-.01.01-.01.01-.03.02-.04.03-.04.03-.09.06-.13.08-.04.02-.09.05-.13.07-.01.01-.03.01-.04.02h.01s-.01.01-.02.01h-.02c-.03.01-.05.02-.08.03h-1.86a.25.25 0 00-.24.24c.01.13.1.24.24.24h1.66v3.3c-.06-.03-.11-.06-.17-.09-.13-.07-.26-.14-.37-.22-.01 0-.01-.01-.02-.01.01 0 .01.01.01.01s-.01-.01-.03-.02c-.02-.02-.05-.04-.07-.06l-.01-.01v-2c0-.13-.11-.24-.24-.24h-1.12a.25.25 0 00-.24.24c0 .04.01.07.03.1.04.08.11.13.21.13h.88v1.16c0 .21-.01.43 0 .64.01.15.1.27.21.36.12.1.26.19.4.26.17.1.35.18.53.26v1.2c0 .1 0 .2-.01.29v.06c0 .01 0 .02-.01.03l-.03.17c-.02.1-.05.2-.09.3-.01.02-.02.05-.03.07 0 0 0 .01-.01.02v.01c-.02.05-.05.1-.07.15l-.15.27c-.03.04-.06.08-.09.13v.03c-.02.02-.04.05-.06.07-.07.08-.14.15-.21.22-.04.04-.08.07-.11.1-.02.02-.04.03-.06.05l-.02.02-.01.01-.01.01c-.08.06-.17.12-.26.17-.09.05-.19.11-.29.15 0 0-.02.01-.03.01h-.02c-.02.01-.04.02-.05.02-.05.02-.11.04-.16.06-.11.03-.21.06-.32.08l-.16.03h-.04c-.03 0-.06.01-.09.01-.13.01-.27.01-.4.01-.28 0-.57.01-.86-.01-.03 0-.05-.01-.08-.01h-.04l-.17-.03c-.11-.02-.22-.05-.32-.09-.04-.01-.08-.03-.12-.04-.01 0-.02-.01-.03-.01-.01 0-.02-.01-.03-.01h-.02c-.01 0-.01-.01-.01-.01-.01-.01-.03-.01-.04-.02-.09-.04-.17-.08-.25-.13.15-.21.23-.47.22-.73-.01-.33-.15-.65-.4-.87-.07-.06-.14-.12-.22-.16V9.48c0-.17 0-.34-.02-.5-.01-.05-.01-.11-.02-.16.01-.01.03-.02.04-.04.24-.23.27-.6.29-.91a7.85 7.85 0 00-.04-1.29h2.19c.09 0 .17-.05.21-.13.02-.03.03-.07.02-.1-.01-.13-.1-.24-.24-.24h-2.45c-.12 0-.25.11-.24.24 0 .04.01.07.01.1.04.4.07.8.06 1.2 0 .15-.01.29-.03.44v.04l-.16-.35a3.7 3.7 0 00-.55-.86v-2.2zm-6.37 14.8c-.06-.05-.13-.09-.2-.13.07-.03.13-.06.2-.1v.23zm-2.6-.53s-.01 0 0 0c-.01 0-.01-.01-.01-.01H5c-.02-.01-.04-.02-.05-.03-.14-.06-.27-.14-.39-.22l-.09-.06c-.02-.01-.03-.02-.05-.04a3.26 3.26 0 01-.48-.48c-.01-.01-.01-.02-.02-.02 0 0-.01-.01-.01-.02-.02-.03-.05-.06-.07-.1-.04-.06-.09-.13-.13-.2-.04-.06-.07-.13-.11-.2-.02-.03-.03-.07-.05-.1 0-.01-.01-.02-.01-.03v-.02c0-.01-.01-.03-.01-.03-.04-.11-.08-.22-.11-.34l-.03-.11c-.02-.08-.03-.16-.05-.24v-.03.02c-.01-.01 0-.04-.01-.05 0-.02 0-.04-.01-.05 0-.02 0-.05-.01-.07-.01-.16-.01-.33 0-.49 0-.04.01-.08.01-.12 0-.01 0-.04.01-.05v-.03c.01-.08.03-.15.05-.23l.09-.32c.01-.04.03-.09.05-.13 0 0 0-.01.01-.02v-.02c0-.01.01-.02.01-.03.02-.04.03-.07.05-.11.02-.04.04-.09.07-.13.01-.02.02-.04.04-.07a2.263 2.263 0 01.2-.29c0-.01.01-.01.01-.02.01-.01.02-.03.03-.04.1-.12.2-.23.31-.33.05-.05.11-.1.17-.14 0 0 .01 0 .01-.01.01-.01.03-.02.04-.03.03-.02.06-.05.1-.07.07-.05.15-.09.22-.14h2.65c.01.01.03.02.04.02.07.04.13.08.2.12l.09.06c.01.01.03.02.04.03 0 0 .01 0 .01.01.12.1.23.2.34.31.05.05.1.11.15.17 0 0 .01.02.02.03.01.01.01.01.01.02.02.03.05.06.07.1.07.1.14.21.19.32.01.02.03.05.04.07.02.03.03.07.05.1 0 0 .01.01.01.02v.01c0 .01.01.02.01.03.03.06.05.13.07.19 0 .01.01.02.01.03l.06.23c.02.08.03.15.04.23v.02c0 .02 0 .03.01.05 0 .04.01.08.01.12.01.08.01.16.01.24 0 .08 0 .17-.01.25 0 .02 0 .04-.01.07v.04c0 .02 0 .05-.01.06v-.01.03c-.02.11-.04.22-.07.33-.01.04-.02.09-.04.13-.02.08-.05.15-.08.22 0 0-.01.01-.01.02v.01c-.01.01-.01.02-.01.03-.02.03-.03.07-.05.1-.07.14-.14.27-.23.4a.55.55 0 01-.07.09s-.01.01-.01.02c-.01.01-.02.02-.02.03-.05.06-.1.12-.15.17l-.03.03c-.1.1-.2.18-.3.27-.01.01-.03.02-.04.03-.03.02-.06.05-.1.07-.01.01-.02.01-.02.02l-.17.11c-.06.04-.13.07-.2.1-.02.01-.04.02-.05.03 0 0-.01.01-.02.01l-.07.07-.06.03c-.14.05-.29.1-.44.13-.04.01-.07.01-.11.02-.01 0-.02 0-.04.01h-.79c-.01 0-.03 0-.04-.01-.04-.01-.08-.01-.12-.02-.07-.02-.15-.03-.22-.05-.08-.02-.15-.05-.22-.07-.02-.02-.04-.03-.05-.04-.01 0-.02 0-.03-.01zm-.54-6.1l-.01-.01c-.01-.01-.01-.02-.02-.03-.04-.07-.08-.14-.11-.21-.03-.06-.07-.13-.1-.19v-.01c-.01-.02-.01-.03-.02-.05 0-.01-.01-.02-.01-.03 0-.01-.01-.02-.01-.03v-.01.03c-.01-.01 0-.07 0-.08v-.02c0-.01.01-.03.01-.04 0-.01.01-.02.01-.03.01-.01.02-.03.03-.04.02-.02.05-.06.07-.07l-.02.01s.01 0 .01-.01c.01-.01.03-.02.04-.03.02-.03.04-.04.07-.05.02-.01.03-.01.05-.02h.05c.01 0 .02.01.03.01.01 0 .02.01.03.01h.01c.1.05.19.1.29.15.11.06.23.12.36.04.09-.05.17-.15.25-.22.01-.01.02-.02.03-.02.01-.01.02-.01.03-.02h.03c.01 0 .02.01.03.01l.06.03c.05.03.11.07.16.11.01.01.03.02.03.03.02.02.05.04.07.06l.05.05.03.03c.01.01.03.04.03.05 0 0 0 .01.01.01 0 .01.01.02.01.03.03.05.06.08.11.11.01.01.02.02.04.02.09.05.18.06.28.08h.02l.15.03c.02.01.04.01.06.02h.01c.01 0 .01.01.02.01 0 0 .01 0 .01.01v.01c.01.04.03.07.04.11.02.05.04.1.06.14.02.06.05.12.07.18 0 .01.01.02.01.04.01.03.02.06.03.08.01.03.03.07.04.1H4.89l-.03-.03c-.01-.01-.02-.01-.02-.02 0 0-.01 0-.01-.01-.01-.01-.02-.01-.03-.02-.09-.07-.17-.15-.25-.23a.435.435 0 01-.06-.07zm2.2-1.27c.01-.01.02-.03.03-.05.01-.02.02-.04.04-.05l-.01.01c.01-.02.03-.03.04-.05l.07-.07c.01-.01.02-.02.03-.02h.01c.01 0 .01-.01.01-.01.01-.01.03-.02.04-.03l.06-.03c.01-.01.03-.01.04-.02h.03l.1-.03h.02c.03 0 .06-.01.08-.02h.37v1.53h-.3c-.01-.03-.02-.06-.04-.09-.04-.1-.07-.22-.13-.31-.03-.04-.05-.07-.08-.09-.1-.09-.23-.12-.36-.15-.04-.01-.09-.02-.14-.03v-.19c0-.02.01-.03.01-.05l.03-.1c0-.01.01-.02.01-.03v-.01c.01-.06.02-.09.04-.11zm-.16-3.89c0-.01 0-.01 0 0 .28-.17.56-.34.85-.51.01-.01.02-.02.04-.03.05.05.1.11.15.16l.01.01.15.18.15.15c.02.02.05.06.08.09-.13.27-.27.54-.4.8-.01.02-.03.05-.04.07l-.03-.11c-.03-.11-.07-.22-.1-.33 0-.01 0-.01-.01-.02a.759.759 0 00-.06-.18.304.304 0 00-.08-.08c-.06-.03-.12-.04-.18-.06-.01 0-.03-.01-.04-.01-.1-.03-.19-.05-.28-.08-.07-.02-.14-.04-.21-.05zm1.29-1.45c.01 0 .03 0 .04.01.03 0 .09.01.11.03l-.02-.01h.01c.01 0 .01.01.02.01 0 0 .01 0 .01.01.02.01.04.02.05.03.03.02.06.03.08.05 0 0 .01 0 .01.01.01.01.02.02.04.02.01.01.03.02.03.03.02.01.03.03.05.04l.06.06c.06.05.11.11.16.17.03.01.03.01.04.02l.01.01.01.01c.01.01.01.02.01.02.01.02.03.04.04.06.03.04.05.08.08.13l.06.12c0 .01.01.01.01.02s0 .01.01.02c.01.03.02.04.02.05.01.04.02.08.03.11 0 .02.01.04.01.06v.12c.01.02.01.04 0 .05 0 0-.01.02-.01.03l-.03.03h-.02c-.02 0-.06-.01-.08 0-.02 0-.03-.01-.05-.01-.02 0-.04-.01-.05-.02-.01 0-.01-.01-.02-.01h-.02s.01.01.02.01c-.04-.01-.08-.04-.11-.06a.88.88 0 00-.1-.06c-.01-.01-.03-.02-.04-.03-.01-.01-.04-.03-.04-.04-.02-.01-.03-.02-.05-.04-.06-.06-.12-.12-.17-.19-.03-.02-.05-.05-.07-.07-.03-.04-.06-.07-.08-.11-.03-.05-.06-.09-.08-.14l-.03-.06c0-.01-.01-.01-.01-.02v-.01c-.03-.08-.06-.16-.07-.24v-.11c0-.03.01-.07.02-.08 0-.01.01-.02.01-.02.03-.01.02-.01 0 0 .01 0 .02-.01.03-.01h.04c.02-.01.02 0 .03 0zm1.07-1.01l.03.11c.04.11.07.22.1.32.02.06.03.13.06.19 0 .01.01.01.01.02.06.09.16.11.26.14h.01l.32.09c.04.01.09.02.13.04.02 0 .05.01.07.02-.28.17-.56.33-.84.5l-.15-.21c-.02-.02-.03-.04-.05-.06-.03-.04-.07-.08-.11-.12-.05-.06-.11-.12-.17-.17-.03-.02-.05-.04-.08-.06.12-.25.25-.5.37-.74.02-.02.03-.05.04-.07zm-1.7 3.85c.05.08.12.15.22.17.16.04.33-.03.41-.19l.09-.18c.1-.21.21-.42.31-.63.05-.09.1-.19.15-.29.29.11.63.12.82-.18.12-.19.11-.44.05-.65 0-.01-.01-.02-.01-.03.28-.17.56-.33.83-.5.15-.09.38-.18.44-.37.01-.05.02-.09.01-.14h.72c.09 0 .18 0 .27.01.05 0 .09.01.14.01h.02c.03 0 .05.01.08.01.19.03.37.08.55.14.04.01.08.03.12.05.02.01.04.02.06.02h.01c.01.01.03.01.03.01.08.04.17.08.25.12l.24.15c.04.02.07.05.11.07.02.01.04.03.05.04l.01.01s.01 0 .01.01c.12.09.23.19.33.3l.07.07c.03.03.06.07.09.1.01.02.03.04.04.05 0 .01.01.01.02.02v.02l.15.21.09.15c.06.11.12.22.17.34 0 .01.01.01.01.02l.03.06c.02.05.03.09.05.14.03.08.05.16.07.24 0 .01 0 .02.01.03.02.09.04.19.05.28 0 .01 0 .02.01.03v-.01c0 .02.01.05.01.07 0 .02 0 .04.01.06 0 .03 0 .06.01.09.01.08.01.17.01.25v1.42c-.05-.01-.1-.01-.14-.01h-.3v-.52c0-.11-.09-.22-.21-.23h-.74c-.2 0-.4-.01-.6-.03l-.29-.03h-.02c-.02 0-.04-.01-.07-.01-.04.03-.09.02-.14.01a.762.762 0 01-.2-.06h-.02l-.06-.03c-.02-.01-.04-.03-.06-.04l-.03-.03c-.04-.04-.08-.07-.11-.11-.01-.01-.01-.02-.02-.02l-.02-.02c.02 0 .02.01.02.01l-.02-.02c-.01-.01-.02-.03-.03-.04a1.35 1.35 0 01-.15-.26c-.02-.04-.04-.07-.05-.11v-.03c0-.01-.01-.02-.01-.03-.01-.03-.02-.06-.03-.1V7.93a.25.25 0 00-.24-.24c-.12.01-.22.09-.23.2 0 .02-.01.03-.01.05V9c-.01.02-.02.05-.03.07 0 .01-.01.03-.02.04v.01l-.12.24c-.02.04-.05.08-.08.12-.01.02-.03.04-.04.06-.04.04-.04.05-.05.06-.03.04-.07.08-.11.11-.01.01-.02.01-.02.02 0 0-.02.01-.02.02-.01.01-.03.02-.04.03-.02.01-.04.03-.07.04h-.01c-.05.02-.08.03-.11.04-.08.02-.16.04-.24.05-.02 0-.04.01-.07.01h-.02c-.05 0-.1.01-.15.02a10.67 10.67 0 01-1.41.04c-.01-.01-.03-.01-.05-.01-.13.01-.24.1-.24.24v.55h-.38c-.06 0-.11 0-.17.01V9.52c0-.14 0-.27.01-.4zm7.33 4.51v.16h-.79c.08-.19.14-.38.18-.58h.37c.08 0 .16-.01.24-.03v.45zm-1.39.32c-.03.05-.07.11-.1.16 0 .01-.01.01-.01.02-.01.01-.02.03-.03.04-.02.03-.05.06-.07.09-.1.11-.2.22-.31.31a.5.5 0 00-.08.07c-.02.01-.03.02-.05.04-.05.04-.1.07-.15.1-.01.01-.02.02-.04.02-.06.04-.13.08-.2.11-.03.02-.06.03-.09.05-.02.01-.03.01-.05.02 0 0-.01 0-.01.01h-.01c-.06.02-.11.04-.17.06a2.504 2.504 0 01-.49.11c-.02 0-.04 0-.05.01-.04 0-.09.01-.13.01-.15.01-.3.01-.45 0-.04 0-.08-.01-.12-.01-.02 0-.04-.01-.06-.01-.08-.01-.15-.03-.23-.05-.07-.02-.15-.04-.22-.07-.02-.01-.04-.01-.05-.02-.01-.01-.03-.01-.04-.02-.08.01-.09.01-.11 0h-.02c-.14-.06-.27-.13-.4-.21-.02-.01-.04-.03-.06-.04-.04-.03-.09-.06-.13-.09l-.01-.01c-.01-.01-.02-.02-.03-.02-.03-.02-.06-.05-.08-.07-.11-.1-.21-.21-.31-.32-.01-.01-.02-.03-.03-.04a.55.55 0 00-.07-.09c-.04-.06-.08-.12-.12-.19-.04-.06-.07-.13-.1-.19-.01-.03-.03-.06-.04-.08v-.02c-.01-.02-.01-.04-.02-.06-.05-.14-.09-.29-.12-.43-.01-.04-.01-.07-.02-.1 0 0 0-.02-.01-.03v-.04c-.01-.08-.01-.15-.01-.23v-2.25h.5c.41-.01.84-.03 1.24-.12.11-.03.21-.06.31-.11.09-.05.17-.1.24-.17.14-.12.25-.27.34-.43.14.25.32.47.57.61.07.04.14.07.22.1.19.06.39.08.58.1.21.02.42.03.63.04.22.01.44.01.66.01v2.29c0 .04 0 .07-.01.11 0 .02 0 .04-.01.06v.05c0 .02-.01.03-.01.05-.01.04-.01.07-.02.11-.03.15-.08.29-.13.43v.02c0 .01-.01.02-.02.04-.02.04-.03.07-.05.11-.01.01-.01.02-.02.04-.06.01-.09.07-.12.12zm-5.58-.68l-.02-.06h.27c.01.04.01.08.02.11l.03.12c-.1-.06-.2-.11-.3-.17zm7.49-1.28v.1c0 .02-.01.03-.01.05l-.03.1c0 .01-.01.02-.01.03v.01c-.01.03-.03.05-.04.08l-.03.06c-.01.01-.02.03-.03.03.01-.01.03-.03 0 0-.01.02-.03.03-.04.05l-.07.07-.02.02-.01.01c-.01 0-.01.01-.02.01-.01.01-.03.02-.04.03l-.06.03c-.01.01-.03.01-.04.02h-.02c-.01 0-.03.01-.04.01-.02.01-.04.01-.06.02-.02.01-.08.01-.1.02H14v-1.52h.38c.01 0 .02 0 .03.01.04.01.09.02.13.04 0 0 .01 0 .02.01.01 0 .01.01.02.01.02.01.04.02.07.04.01.01.02.01.03.02.01 0 .03.02.05.03.02.01.04.03.05.05.02.01.03.03.05.05l.02.02c.01.01.02.02.02.03 0 0 0 .01.01.01l.01.01.09.15c.01.02.01.03.02.05l.03.1c0 .01.01.02.01.03v.11zm-5.79 3.33c.04.01.08.02.12.04.01 0 .01 0 .02.01h.01c.02.01.05.02.07.04.02.01.04.02.06.04.01.01.02.01.03.02.04.03.07.06.1.1l.02.02.01.01s0-.01-.01-.01c.01.01.03.04.04.06l.03.06c0 .01.01.02.01.03.01.05.03.09.04.14v.21l-.03.13c0 .01-.01.02-.01.02 0 .01 0 .01-.01.02s-.01.02-.02.03c-.01.02-.02.03-.03.05-.01.01-.01.02-.02.03l-.01.01s-.02.03-.03.04l-.05.05-.04.04-.02.02h-.01c-.03.02-.07.04-.1.06-.02.01-.03.02-.05.02-.01 0-.01.01-.02.01.01-.1.01-.19.01-.29.03-.36-.02-.69-.11-1.01zm5.59-2.24c.04-.02.07-.04.11-.06l.21.12c-.11.07-.21.14-.31.21v-.27zM2.73 16.45c-.01-.01-.03-.02-.04-.03l-.05-.05-.04-.04-.01-.01a.673.673 0 01-.07-.11s0-.01-.01-.01v-.01c-.01-.02-.01-.04-.02-.06-.01-.02-.01-.04-.01-.06v-.18c.01-.02.01-.05.02-.07.01-.02.01-.04.02-.06v-.02c.02-.04.04-.08.07-.12 0-.01.01-.01.01-.02.01-.01.02-.03.04-.04l.05-.05c.01-.01.02-.02.03-.02 0 0 .01 0 .01-.01.01 0 .03-.02.04-.03.02-.01.04-.03.06-.04l.06-.03c.01-.01.04-.02.04-.02.01 0 .02-.01.03-.01a3.392 3.392 0 00-.13 1.17c-.05-.04-.08-.05-.1-.07zm1.63 4.16c.01-.05.02-.1.04-.14.01-.02.01-.04.02-.06 0 0 0-.01.01-.01.01-.02.01-.03.02-.05.02-.05.05-.09.08-.13a.21.21 0 01.04-.06c.01-.01.01-.02.02-.03.07-.08.14-.15.22-.22.01-.01.02-.01.03-.02.02-.01.04-.03.06-.04.05-.03.1-.06.15-.08.01 0 .01-.01.02-.01h.01c.02-.01.05-.02.07-.03.05-.02.1-.03.15-.04.03-.01.05-.01.08-.02h.03c.05-.01.1-.01.15-.01h.16c.26.03.52.03.78 0 .09 0 .17 0 .26.01h.03c.02 0 .05.01.07.01.05.01.11.03.16.04.02.01.05.02.07.03.01.01.02.01.03.01.05.02.1.05.14.08.02.02.05.03.07.05.01 0 .01.01.02.01h.01s.01 0 .01.01c.04.04.09.07.12.12l.06.06c.01.01.01.02.02.03.01.02.02.04.04.05.02.03.04.06.06.1.01.02.03.05.04.08.01.01.01.03.02.04v.01c.02.05.04.11.05.17.01.02.01.05.02.07H4.35c0-.01 0-.02.01-.03zm9.09-2.56v2.59h-.97v-3.5a.25.25 0 00-.24-.24c-.13.01-.24.1-.24.24v3.5H8.3c-.03-.21-.1-.41-.2-.59v-1.07c.13-.1.26-.22.38-.34.4-.43.69-.97.83-1.54.01 0 .03 0 .04-.01.52-.1.93-.56.94-1.09v-.05c0-.12-.03-.23-.06-.34.12.03.25.04.37.05.59.05 1.19-.07 1.71-.34.02.01.04.03.06.04l.11.08c.02.02.04.04.07.05.07.06.14.12.2.19.06.06.11.12.17.19 0 .01.02.03.03.04.01.02.02.03.04.05.03.04.05.08.08.12.05.08.09.16.13.24.02.04.04.08.05.12v.01c0 .01 0 .01.01.02.01.02.02.05.03.07.03.09.06.18.08.27l.03.14c0 .02.01.05.01.07 0 .01 0 .02.01.04.04.34.03.67.03.99zm-.41-2.74c-.09-.09-.2-.18-.3-.26.34-.25.64-.58.85-.95h.53c-.37.53-.58 1.16-.61 1.8-.13-.21-.29-.41-.47-.59zm6.08-1.64c.02.02.04.03.06.05l.01.01c.01.01.03.02.04.03.18.15.35.32.5.5l.01.01.03.03c.02.02.03.05.05.07.04.05.07.1.1.16.06.1.12.21.17.32.01.02.02.04.02.05v.02c0 .01.01.03.02.04l.06.18c.04.12.07.23.09.35.01.03.01.06.02.1 0 .01 0 .03.01.04v.02c.01.06.01.11.02.17.01.08.01.15.01.23v4.57h-1.31V16.5c0-.2.01-.4 0-.6v-.01a.25.25 0 00-.24-.24c-.13.01-.24.1-.24.24v4.74h-3.98c-.2 0-.4-.01-.6-.01v-4.57c0-.09 0-.17.01-.26 0-.03.01-.06.01-.09 0-.02 0-.03.01-.04v-.02l.03-.17c.03-.12.06-.24.1-.36.02-.06.04-.11.06-.16.01-.01.01-.03.02-.04.01-.03.03-.06.04-.09.05-.11.11-.22.17-.32.03-.05.06-.1.09-.14.02-.02.03-.05.05-.07.01-.01.01-.02.02-.03l.01-.01c.04-.05.08-.1.12-.14.03-.01.05-.02.07-.04a.15.15 0 00.04-.08c.09-.09.18-.17.27-.24h.02s.01 0 .01-.01l.01-.01c.02-.02.05-.03.07-.05.05-.04.1-.07.16-.1.1-.06.21-.12.32-.17 0 0 .01 0 .01-.01h.01c.36.12.74.15 1.12.15.29 0 .58.01.87-.01.28-.03.55-.09.82-.18h.02c.01 0 .02.01.03.01.03.01.06.03.09.04.11.05.21.11.32.18.06.02.11.05.15.08zm2.41-4.08c0 .01 0 .01 0 0 0 .01 0 .01 0 0 0 .02 0 .03-.01.04-.01.04-.02.11-.04.15 0 0-.01.01-.01.02-.01.01-.01.03-.02.04-.01.02-.02.04-.04.07-.01.01-.02.04-.03.05l-.01.01c-.01.02-.03.03-.04.04l-.06.06-.03.03s-.01 0-.01.01h-.01c-.05.03-.1.06-.16.09 0 0-.01 0-.01.01-.01 0-.03.01-.04.01l-.09.03c-.01 0-.03.01-.04.01h-.01l-.11.01h-.04V8.74h.14c.05.01.1.02.15.04.01 0 .02.01.03.01h.01a.3.3 0 01.08.04c.02.01.05.03.07.04 0 0 .01.01.02.01.05.04.09.08.13.12 0 .01.01.01.01.02.02.02.03.05.05.07.01.02.03.04.04.07 0 .01.01.01.01.02s.01.02.01.02c.02.05.03.11.04.16v.12c.02.06.02.09.02.11z"/><path class="st0" d="M9.78 11.8c.05 0 .09-.04.13-.1.05-.1.09-.25.09-.42 0-.29-.1-.52-.22-.52s-.22.23-.22.52c0 .17.03.32.09.42.04.07.08.1.13.1zm2.05 0c.05 0 .09-.04.13-.1h.01v-.02c.05-.1.08-.24.08-.4v-.1c-.02-.24-.11-.42-.21-.42-.12 0-.22.23-.22.52 0 .17.03.32.09.42.02.07.07.1.12.1zm.29 1.12a.235.235 0 00-.16-.05c-.05 0-.11.03-.15.06 0 0-.01 0-.01.01 0 0-.01 0-.01.01-.06.04-.11.08-.17.11-.08.05-.16.09-.24.13l-.06.03c-.01 0-.02.01-.04.01-.05.02-.11.04-.17.06-.05.02-.11.03-.17.04-.01 0-.02 0-.04.01-.03 0-.07.01-.1.01-.05 0-.11 0-.16-.01h-.03c-.03-.01-.06-.01-.1-.02-.05-.01-.1-.03-.16-.05-.02-.01-.04-.02-.06-.02h-.01c-.01-.01-.03-.01-.04-.02-.09-.04-.17-.09-.25-.14-.04-.02-.07-.05-.1-.07 0 0-.01-.01-.02-.01 0 0-.01 0-.01-.01h-.01c-.02-.02-.05-.04-.07-.06-.09-.08-.24-.1-.33 0-.08.09-.1.24 0 .33.24.22.55.4.86.49.51.15 1.04.01 1.49-.25.06-.03.11-.07.17-.11.05-.04.11-.07.16-.12.01-.01.02-.01.02-.02.1-.08.09-.25 0-.33-.01 0-.02-.01-.03-.01zm2.4-.9v-.01zm-9.35 3.89c.12 0 .22-.23.22-.52 0-.29-.1-.52-.22-.52s-.22.23-.22.52c0 .29.1.52.22.52zm1.75-.08c.12 0 .22-.23.22-.52 0-.29-.1-.52-.22-.52s-.22.23-.22.52c.01.29.1.52.22.52zm.21 1.21c.12-.07.24-.15.35-.24.1-.08.09-.25 0-.33-.1-.09-.23-.08-.33 0 0 0-.01 0-.01.01 0 0-.01 0-.01.01-.06.04-.11.08-.17.11-.08.05-.16.09-.24.13l-.06.03c-.01 0-.02.01-.04.01-.05.02-.11.04-.17.06-.05.02-.11.03-.17.04-.01 0-.02 0-.04.01-.03 0-.07.01-.1.01-.05 0-.11 0-.16-.01h-.03c-.03-.01-.06-.01-.1-.02-.05-.01-.1-.03-.16-.05-.02-.01-.04-.02-.06-.02h-.01c-.01-.01-.03-.01-.04-.02-.09-.04-.17-.09-.25-.14-.04-.02-.07-.05-.1-.07-.01 0-.01-.01-.02-.01 0 0-.01 0-.01-.01h-.01c-.02-.02-.05-.04-.07-.06-.09-.08-.24-.1-.33 0-.08.09-.1.24 0 .33.24.22.55.4.86.49.51.14 1.03 0 1.48-.26z"/></svg>