<svg version="1.1" id="Layer_1" xmlns="http://www.w3.org/2000/svg" x="0" y="0" viewBox="0 0 24 24" xml:space="preserve"><style>.st0{fill:#b60e3f}</style><path class="st0" d="M14.27 17.05c-.1 0-.19.08-.19.19v2.26c0 .1.09.2.19.19.1 0 .19-.08.19-.19v-2.26c0-.09-.09-.19-.19-.19zm1.49-.2c-.1 0-.19.08-.19.19v1.92c0 .1.09.2.19.19.1 0 .19-.08.19-.19v-1.92c0-.1-.08-.2-.19-.19zm-6.28.2c-.1 0-.19.08-.19.19v2.26c0 .1.09.2.19.19.1 0 .19-.08.19-.19v-2.26c0-.09-.08-.19-.19-.19zM3.31 15.9c-.1 0-.19.08-.19.19v1.93c0 .1.09.2.19.19.1 0 .19-.08.19-.19v-1.93c0-.09-.09-.19-.19-.19zm4.68.95c-.1 0-.19.08-.19.19v1.92c0 .1.09.2.19.19.1 0 .19-.08.19-.19v-1.92c0-.1-.09-.2-.19-.19zm-5.8-.42c-.1 0-.19.08-.19.19v1.36c0 .1.09.2.19.19.1 0 .19-.08.19-.19v-1.36c.01-.1-.08-.2-.19-.19zm2.25-6.16c-.11 0-.2.14-.2.32s.09.32.2.32c.11 0 .2-.14.2-.32-.01-.18-.1-.32-.2-.32z"/><ellipse class="st0" cx="6.55" cy="10.59" rx=".2" ry=".32"/><path class="st0" d="M6.2 11.8c.06-.06.12-.13.17-.2.05-.09.02-.21-.07-.26a.193.193 0 00-.26.07c-.01.01-.02.02-.02.03l-.05.05c-.02.02-.03.04-.05.05l-.03.03c-.03.02-.05.03-.08.05-.01.01-.03.01-.04.02-.01 0-.01.01-.02.01l-.1.03c-.02 0-.04.01-.06.01h-.2c-.02 0-.05-.01-.07-.02-.02-.01-.04-.01-.05-.02-.01 0-.02-.01-.03-.01h-.01c-.02-.01-.05-.03-.07-.04-.03-.01-.05-.03-.07-.05 0 0-.01 0-.01-.01-.01-.01-.03-.02-.04-.03l-.1-.1-.01-.01-.01-.01c-.05-.08-.17-.13-.26-.07-.08.05-.13.17-.07.26.13.21.35.36.58.44.36.14.76.03 1.03-.22zm14.49 4.1c-.1 0-.19.08-.19.19v1.93c0 .1.09.2.19.19.1 0 .19-.08.19-.19v-1.93c0-.09-.08-.19-.19-.19z"/><path class="st0" d="M21.79 16.27c.11 0 .18-.08.19-.19.02-.32.02-.65.01-.97 0-.14 0-.27-.03-.41a.825.825 0 00-.1-.26 1.22 1.22 0 00-.35-.4c-.26-.2-.56-.35-.87-.45-.22-.07-.46-.06-.69-.06-.22 0-.44.01-.65.01 0-.08 0-.16-.01-.24.14-.05.27-.11.39-.19.33-.21.59-.52.77-.87.07-.13.12-.28.17-.42.4-.01.82-.1 1.05-.45.13-.2.17-.46.13-.69a.856.856 0 00-.27-.49c.08-.28.13-.56.15-.85.03-.25.03-.5 0-.75-.03-.21-.12-.41-.22-.6-.13-.26-.29-.5-.47-.72-.06-.08-.21-.07-.27 0-.08.08-.07.19 0 .27.01.01.02.03.03.04v.01c.02.02.03.04.05.06.04.05.07.1.11.16.09.09.15.19.2.29.03.05.05.1.07.15.01.02.02.05.03.07v-.01.01c0 .01.01.02 0 .01 0 .01.01.02.01.03.04.09.07.18.09.28 0 .01.01.03.01.04v.03c.01.07.01.13.01.2 0 .12 0 .24-.01.36 0 .06-.01.11-.02.17v.01c0 .01 0 .03-.01.04 0 .03-.01.06-.01.09-.02.09-.03.18-.05.28l-.03.12c-.11-.04-.23-.07-.35-.09 0-.03 0-.05-.01-.08.11-.03.24-.08.29-.18.08-.14.06-.33.04-.48a2.02 2.02 0 00-.06-.34c-.02-.1-.14-.16-.24-.13-.1.03-.16.13-.13.24.02.07.03.15.04.22v.01c0 .02 0 .03.01.05 0 .03.01.07.01.1v.12c-.01 0-.02.01-.03.01-.03.01-.05.02-.08.02-.01 0-.02 0-.03.01-.03 0-.06 0-.09.01-.06 0-.12 0-.18-.01h-.03.01c-.01 0-.02 0-.04-.01-.03-.01-.07-.01-.1-.02-.07-.01-.13-.03-.2-.05-.14-.04-.27-.09-.4-.14-.03-.01-.06-.02-.09-.04h-.01c-.02-.01-.03-.01-.05-.02-.06-.03-.13-.06-.19-.09-.11-.05-.22-.11-.32-.16-.12-.06-.24-.13-.35-.2a.169.169 0 00-.1-.03c-.04 0-.07.01-.11.03-.09.06-.19.11-.28.16-.1.05-.2.11-.31.16-.06.03-.12.06-.18.08-.03.01-.06.03-.09.04-.01.01-.03.01-.04.02h-.01c-.26.11-.52.2-.8.25-.01 0-.02 0-.03.01h-.01c-.03 0-.06.01-.1.01h-.2c-.03-.01-.06-.01-.08-.02-.01 0-.02-.01-.02-.01h-.01v-.05c0-.07 0-.15.01-.22v-.01c0-.02 0-.03.01-.05 0-.03.01-.06.01-.09.01-.03.01-.06.02-.09.02-.1-.03-.21-.13-.24-.1-.02-.21.03-.24.13-.02.08-.03.16-.04.25-.02.15-.04.32-.01.47.04.16.16.24.31.28v.08c-.11.01-.22.03-.32.06 0-.02 0-.05-.01-.07-.01-.1-.04-.2-.08-.3 0-.01 0-.03-.01-.04V9.5c0-.03-.01-.06-.01-.09-.03-.26-.03-.52.01-.78v-.01c0-.02 0-.03.01-.05.01-.04.01-.07.02-.11.01-.07.03-.14.05-.22.02-.07.04-.14.07-.22.01-.01.01-.03.02-.04v-.02c0-.01.01-.01.01-.02.02-.04.03-.07.05-.11l.12-.21.06-.09s.01-.02.02-.02c.01-.01.02-.02.03-.04.1-.12.2-.22.32-.32.01-.01.03-.02.04-.03l.01-.01h.01c.03-.02.06-.05.1-.07.06-.04.13-.09.2-.13.07-.04.14-.08.22-.12.03-.02.07-.03.1-.05.02-.01.04-.02.05-.02.01 0 .02-.01.03-.01 0 0 .01 0 .02-.01.3-.12.61-.21.94-.26h.02c.02 0 .03 0 .05-.01.04 0 .09-.01.13-.01.08-.01.15-.01.23 0 .04 0 .07 0 .11.01h.04c.02 0 .03 0 .05.01.08.01.16.03.23.05.08.02.15.04.22.07.03.01.07.02.1.04.02.01.03.01.05.02.01 0 .01.01.02.01.12.05.25.11.37.18.15.08.29.17.43.27.01 0 .01.01.02.01.08.06.22.02.26-.07.05-.1.02-.2-.07-.26-.33-.25-.72-.44-1.11-.58-.32-.11-.65-.17-.99-.14-.34.03-.69.1-1.01.21-.64.22-1.26.6-1.64 1.18-.04.06-.07.12-.11.18-.03-.49-.14-.97-.36-1.4-.38-.73-1.06-1.22-1.8-1.53-.37-.16-.76-.27-1.16-.32-.21-.03-.41-.05-.62-.05-.21.01-.41.04-.61.09-.36.09-.7.24-1.02.42-.18.1-.36.21-.53.33-.02 0-.02.01-.03.01-.08.06-.13.17-.07.26.05.08.17.14.26.07.11-.09.24-.16.36-.24.13-.08.26-.15.39-.21.07-.03.14-.07.22-.1.01 0 .04-.01.04-.02l.06-.03c.04-.02.09-.03.13-.05.17-.06.35-.11.54-.14.01 0 .03 0 .04-.01h.05c.05-.01.1-.01.14-.01.1 0 .19 0 .29.01.04 0 .09.01.13.01.02 0 .05.01.07.01h.04c.1.01.19.03.28.05.19.04.39.09.57.16.09.03.18.06.26.1.01.01.04.02.04.02.02.01.05.02.07.03.05.02.09.04.13.07.17.09.34.18.5.3l.11.08h.01l.01.01c.02.02.04.03.06.05.07.06.14.12.21.19.06.06.12.13.18.19.01.01.02.03.03.04 0 .01.02.03.03.04.03.04.06.08.08.12.05.08.1.16.14.25l.06.12c0 .01.01.02.01.03v.01c.01.02.02.04.02.06.06.17.11.34.15.51.01.04.02.08.02.12 0 .02.01.04.01.06v.04c.01.08.02.16.02.25.01.16.01.32 0 .47 0 .07-.01.14-.02.22 0 .03-.01.07-.01.1v.04l-.06.35c.04.08.03.15.01.21-.15-.05-.3-.08-.46-.09 0-.05 0-.1-.01-.16.13-.03.27-.09.34-.21.09-.16.07-.38.05-.56-.02-.12-.04-.25-.07-.38-.02-.1-.14-.16-.24-.13-.1.03-.16.13-.13.24.02.09.03.18.05.26v-.01.03c0 .02 0 .03.01.05 0 .04.01.08.01.12v.18s-.01 0-.01.01h-.01s-.01 0-.01.01h-.02l-.09.03c-.01 0-.02 0-.04.01h-.02c-.03 0-.07.01-.1.01-.07 0-.14 0-.22-.01-.01 0-.03 0-.04-.01h-.03c-.04-.01-.08-.01-.12-.02l-.24-.06c-.16-.05-.32-.1-.48-.16-.04-.01-.07-.03-.11-.04-.01 0-.01-.01-.02-.01h-.02c-.02-.01-.03-.01-.05-.02-.07-.03-.14-.06-.22-.1-.13-.06-.26-.13-.39-.2-.14-.08-.29-.15-.42-.24a.169.169 0 00-.1-.03c-.04 0-.07.01-.11.03-.11.07-.23.13-.34.2-.12.06-.24.13-.36.19-.07.04-.15.07-.22.1-.03.02-.07.03-.1.05-.02.01-.03.01-.05.02-.01 0-.01.01-.02.01h-.01s-.01 0-.01.01c-.31.13-.63.24-.96.29-.02 0-.03 0-.05.01h.01-.03c-.06-.02-.1-.02-.14-.02-.07 0-.13 0-.2-.01h-.02.01-.01.01c-.01 0-.03 0-.04-.01-.04 0-.07-.01-.1-.02h-.01c.01 0 0 0-.03-.01 0 0-.01 0-.01-.01s0-.01-.01-.02v-.07c0-.09.01-.17.02-.26v-.03c0-.02.01-.03.01-.05.01-.03.01-.07.02-.1 0-.04 0-.08.01-.11.02-.1-.03-.21-.13-.24-.1-.02-.22.03-.24.14-.02.09-.04.19-.05.28-.02.18-.05.37-.01.55.02.09.07.17.15.22.06.05.14.07.21.1.01 0 .03.01.04.01 0 .05-.01.1-.01.16-.16.01-.33.05-.48.11-.01-.04-.01-.07-.02-.11v-.01a2.82 2.82 0 00-.14-.82c0-.1-.01-.19-.01-.28v-.2c0-.04 0-.07.01-.11v-.05c0-.02.02-.07 0-.01.02-.04.02-.09.04-.14.01-.05.03-.11.04-.16.01-.03.02-.06.03-.08.01-.01.01-.03.02-.04 0 0 .01-.01.01-.02l.09-.18c.07-.15.14-.29.23-.42.04-.07.09-.14.14-.2.02-.03.05-.06.07-.1 0 0 0-.01.01-.01l.01-.01c.01-.02.03-.03.04-.05.06-.08.08-.2 0-.27-.07-.06-.2-.08-.27 0-.2.24-.37.49-.51.76-.13.23-.24.48-.3.74 0 .02-.01.05-.01.08-.33-.45-.82-.77-1.33-.99-.31-.13-.64-.23-.98-.28-.18-.02-.35-.05-.53-.04-.17.01-.34.04-.51.08-.47.12-.93.35-1.32.63-.01 0-.01.01-.02.02-.08.05-.13.16-.07.26.05.08.18.13.26.07.09-.07.19-.13.3-.19l.33-.18c.06-.03.12-.06.19-.09h.01c.02-.02.04-.03.06-.03.04-.01.08-.03.12-.04.15-.05.3-.09.45-.12.01 0 .03 0 .04-.01h.03c.04 0 .08-.01.12-.01h.24c.04 0 .08.01.11.01.02 0 .04 0 .06.01h.03c.08.01.16.03.24.04.16.03.32.08.48.13.03.02.07.03.11.05.02.01.04.01.05.02.01 0 .02.01.03.01 0 0 .01 0 .02.01.01 0 .02.01.03.01.02.01.04.02.05.02.04.02.08.04.11.05.16.09.3.17.43.26.03.02.06.05.1.07h.01c.02.01.03.03.05.04.06.05.11.1.17.15.05.05.1.11.15.17.01.02.02.03.03.04 0 .01.01.01.01.02.04.04.06.08.08.11.04.06.08.13.11.2.02.03.03.07.05.1 0 .01.01.01.01.02v.01c.02.02.02.04.03.05.02.04.03.09.05.14.02.26.06.52.12.77 0 .01 0 .02.01.03v.26c0 .03 0 .07-.01.1-.05.05-.09.1-.12.15.02-.11 0-.22-.01-.32-.01-.12-.03-.23-.05-.34-.02-.1-.14-.16-.24-.13-.1.03-.15.13-.13.23.02.07.03.15.04.22 0 .02 0 .03.01.05 0 .03.01.07.01.1v.12c-.01 0-.02.01-.03.01-.04.03-.06.04-.09.04-.01 0-.02 0-.03.01-.03 0-.06 0-.09.01-.06 0-.12 0-.18-.01h-.03.01c-.01 0-.02 0-.03-.01-.04-.01-.07-.02-.11-.02-.07-.02-.13-.03-.2-.05-.13-.04-.27-.09-.4-.14-.03-.01-.06-.03-.09-.04H6.5c-.03-.01-.04-.02-.06-.03-.06-.02-.13-.05-.19-.08-.11-.05-.22-.11-.32-.16-.12-.07-.24-.13-.35-.2a.169.169 0 00-.1-.03c-.04 0-.07.01-.11.03-.09.06-.18.11-.27.16-.11.05-.21.11-.31.16-.06.03-.12.05-.18.08-.03.01-.06.03-.09.04-.01.01-.03.01-.04.02h-.01c-.27.12-.54.21-.81.26-.01 0-.02 0-.03.01h-.01c-.03 0-.06.01-.1.01h-.21c-.04-.02-.07-.03-.09-.04-.01 0-.02-.01-.02-.01h-.01v-.05c0-.07 0-.15.01-.22v-.07c0-.03.01-.06.01-.09.01-.03.01-.06.02-.09.03-.09-.02-.2-.13-.22-.09-.03-.21.02-.23.13-.02.08-.03.16-.05.24-.02.16-.04.32 0 .48.04.16.18.25.33.29 0 .03 0 .05-.01.08-.11.01-.23.03-.34.08-.01-.02-.01-.04-.02-.06-.02-.09-.04-.18-.05-.26L2.7 9.5c0-.01 0-.03-.01-.04v-.01c0-.03-.01-.06-.01-.09-.01-.12-.02-.24-.02-.36v-.18c0-.03 0-.06.01-.09v-.05c.03-.07.04-.16.07-.24.01-.02.02-.04.02-.06 0-.01.01-.03.02-.04.02-.05.05-.1.07-.15.06-.12.12-.23.2-.35.03-.05.07-.11.11-.16.02-.04.04-.06.06-.09.01-.02.03-.03.04-.05.06-.08.08-.2 0-.27-.07-.06-.2-.08-.27 0-.16.2-.3.41-.42.64-.1.2-.2.41-.25.63-.06.22-.05.47-.03.71.02.23.05.46.1.68l.06.25a.91.91 0 00-.26.42c-.06.23-.03.49.08.7.1.2.28.33.48.41.19.08.4.1.61.11.02.05.03.09.05.14.14.36.34.71.64.97.19.17.41.29.64.37-.01.08-.01.16-.01.24-.18 0-.35-.01-.53-.01h-.46c-.1 0-.19.01-.29.04-.28.08-.56.2-.8.37-.16.11-.3.24-.41.39-.12.16-.17.35-.18.55-.02.4-.02.8 0 1.19.01.1.08.2.19.19.1 0 .2-.08.19-.19-.02-.31-.02-.62-.01-.93 0-.07 0-.13.01-.2v-.13c.01-.04.01-.07.03-.1 0-.01.01-.02.01-.03.01-.02.01-.03.02-.05.02-.04.04-.07.06-.1 0 0 0-.01.01-.01 0 0 0-.01.01-.01.01-.02.03-.03.04-.05l.08-.08.04-.04c.01-.01.02-.01.03-.02.01 0 .01-.01.02-.01.03-.02.05-.04.08-.06.04-.02.07-.05.11-.07.07-.04.14-.08.21-.11.02-.01.03-.01.05-.02 0 0 .01 0 .01-.01 0 0 .01 0 .01-.01.02-.01.01-.01.01 0 .03-.01.07-.03.08-.03.05-.02.11-.04.16-.06l.11-.03h.07c.14-.01.28-.01.42-.01.21 0 .43.01.64.01.03.24.1.48.25.67.22.28.64.29.9.06.21-.18.29-.46.33-.73.2-.01.4-.01.6-.01.15 0 .3 0 .46.01h.05c.01 0 .01 0 .02.01.07.02.14.05.21.07.05.02.11.04.16.07.01 0 .02.01.03.01.01 0 .01 0 .02.01.03.01.06.03.1.04.06.03.13.06.19.09-.14.2-.2.42-.21.65-.02.52-.02 1.04 0 1.56v.03c.01.1.08.2.19.19.1 0 .2-.08.19-.19-.02-.42-.02-.84-.01-1.27 0-.09 0-.18.01-.27 0-.04 0-.08.01-.13v-.04l.03-.13c0-.01.01-.02.01-.03 0-.01.01-.02.01-.03.01-.01.01-.02.02-.03.02-.04.05-.08.07-.12.01-.01.01-.02.02-.02.02-.02.03-.04.05-.06.03-.04.07-.07.1-.1.02-.02.04-.03.06-.05.01-.01.02-.01.03-.02.01-.01.04-.03.02-.01l.01-.01c.01-.01.02-.01.03-.02.02-.02.04-.03.07-.05.04-.03.08-.05.12-.08.08-.05.17-.09.25-.13l.06-.03c.01 0 .02-.01.03-.01 0 0 .01 0 .01-.01h.01c.01 0 .02-.01.03-.01.02-.01.04-.02.06-.02.06-.02.13-.05.2-.07.05-.01.09-.03.14-.04h.01c.02 0 .05 0 .07-.01.09-.01.18-.01.28-.01-.11.08-.21.16-.32.24-.12.09-.23.18-.35.26-.03.02-.05.04-.07.06-.03.04-.04.09-.04.15v.78c0 .1.09.19.19.19h.25c-.02.07-.05.14-.07.21-.04.11-.07.22-.11.33-.02.06-.05.12-.06.18-.03.1.03.17.08.23l.15.18.45.54c.08.1.16.2.24.29v.98c0 .22-.01.44 0 .66v.01c0 .1.09.2.19.19.1 0 .19-.08.19-.19v-5.29c.1 0 .2 0 .3.01.03.29.11.58.29.8a.713.713 0 001.03.08c.14-.12.23-.3.29-.47.05-.14.08-.28.1-.42.09 0 .19-.01.28-.01v4.62c0 .22-.01.44 0 .66v.01c0 .1.09.2.19.19.1 0 .19-.08.19-.19V17.3c.22-.26.43-.51.64-.77.06-.07.11-.14.17-.2.04-.04.1-.11.11-.16.02-.08-.02-.15-.04-.23-.03-.1-.07-.2-.1-.31-.03-.1-.07-.2-.1-.3h.25c.1 0 .19-.09.19-.19v-.81c0-.08-.04-.13-.1-.17-.23-.17-.45-.34-.68-.51h.17c.06 0 .11.01.17.01h.01c.02 0 .04.01.06.01.06.02.11.03.17.05.04.01.07.03.11.04.02.01.04.01.05.02.01 0 .02.01.03.01 0 0 .01 0 .02.01h.01c.01 0 .02.01.03.01l.06.03.12.06c.09.04.17.09.25.15.02.01.04.03.06.04.01.01.02.01.03.02.01 0 .04.03.02.01l.01.01c.01.01.02.01.03.02.02.02.04.03.06.05.04.03.07.07.1.1.02.02.03.03.04.05.01.01.03.04.01.02-.02-.02.01.01.01.02.03.04.05.08.07.12.01.02.01.03.02.05 0-.01 0-.01.01.01 0 .01.01.02.01.03l.03.13v.03c0 .04 0 .09.01.13.02.5.02 1.01 0 1.51v.03c-.01.1.09.2.19.19.11 0 .19-.08.19-.19.02-.44.02-.88.01-1.32 0-.16 0-.33-.03-.5-.02-.11-.06-.21-.11-.31-.01-.01-.01-.02-.02-.04.02 0 .04-.01.06-.02.09-.05.19-.1.29-.14l.15-.06c.01 0 .04-.02.04-.02.03-.01.06-.02.08-.03l.24-.09c.02-.01.04-.01.05-.02h.02c.31-.02.63-.01.95 0h.14c.04.24.11.48.27.67.23.27.64.3.91.06.2-.18.27-.47.3-.73.18 0 .35-.01.53-.01h.45c.05 0 .1 0 .15.01.02 0 .03.01.05.01.03.01.33.11.32.11 0 0 .01 0 .01.01.02.01.03.01.05.02.04.02.07.03.11.05l.21.12c.03.02.05.04.08.06h.01l.01.01c.01 0 .01.01.02.01.02.01.04.03.05.05.03.03.06.05.08.08l.04.04c.01.01.01.02.02.03.02.03.04.06.06.1.01.01.01.03.02.04v.03l.03.1v.02c0 .04 0 .08.01.12.02.38.02.76 0 1.13.04.16.14.25.24.25zM9.12 8.33c-.02-.01-.03-.03 0 0zm-5.89-.75c0-.01 0-.01 0 0zm-.56 1.11c.01-.02.01-.02 0 0zm18.3 1.61c.02.01.05.01.07.02.01 0 .02.01.03.01h.01c.04.01.09.04.12.07.01.01.02.01.03.02 0 0 .01 0 .01.01l-.01-.01c.02.01.03.03.05.04.02.01.03.03.04.04l.02.02v.01c.02.03.04.07.06.1 0 0 0 .01.01.01.01.02.01.05.02.07v.06c0-.01 0-.01-.01-.02 0 0 0 .01.01.02v.03c0 .05.01.11-.01.15v-.01c0 .01-.01.04-.01.04 0 .02-.01.04-.02.06l-.02.04v.01s-.01.01 0 .02c0 .01-.01.02-.02.03-.01.02-.02.03-.03.05 0 0 0 .01-.01.01l-.01.01c-.02.02-.05.04-.07.06l-.02.02c-.01 0-.01.01-.02.01-.02.01-.03.02-.05.03-.02.01-.03.02-.05.03h-.01c.01 0 .01-.01.01-.01-.02 0-.03.01-.02.01-.01 0-.01.01-.02.01-.05.02-.09.03-.14.04-.02.01-.05.01-.07.02-.01 0-.02 0-.03.01h-.02.01c-.02.01-.06.01-.08.01h-.03a5.458 5.458 0 00.12-1.17h.02c.08.01.11.01.14.02zm-.12-.9c.03-.03.01 0 0 0zm-3.41.23c.27-.1.53-.22.79-.36.1-.05.19-.1.29-.16.31.18.64.34.98.48.28.11.57.2.87.24.03 0 .07.01.1.01 0 .05.01.11.01.16v.07c.01.25 0 .5-.03.76 0 .04-.01.08-.01.12v.03c0 .02 0 .03-.01.05-.01.09-.03.17-.05.26-.04.18-.08.35-.15.52-.01.02-.01.04-.02.06 0 .01-.01.02-.01.03v.03c-.02.03-.03.07-.05.1-.04.08-.08.16-.13.23-.02.04-.05.07-.07.11-.01.01-.01.02-.02.03v.02c-.01.01-.01.02-.02.03-.06.07-.12.13-.19.19-.02.02-.03.03-.05.04l-.02.02-.11.08c-.04.03-.08.05-.12.07l-.06.03c-.01.01-.02.01-.04.02-.07.02-.14.05-.2.07-.02 0-.04.01-.06.02h-.02l-.16.03h-.04c-.03 0-.06.01-.09.01-.12.01-.24.01-.36 0-.03 0-.05 0-.08-.01h-.05l-.16-.03h-.01a.161.161 0 00-.09-.03l-.18-.06c-.01 0-.02-.01-.03-.01-.02-.01-.05-.02-.07-.03a.746.746 0 01-.12-.07.444.444 0 01-.11-.08l-.01-.01c-.02-.01-.04-.03-.05-.04-.07-.06-.13-.12-.19-.19-.01-.02-.03-.03-.04-.05l-.02-.02-.08-.11c-.05-.08-.09-.15-.13-.24l-.06-.12s0-.01-.01-.01v-.01c-.01-.02-.01-.03-.02-.05-.03-.08-.06-.17-.09-.26-.05-.17-.09-.34-.12-.51-.01-.04-.01-.08-.02-.13v-.04c0-.02 0-.03-.01-.05-.01-.08-.02-.16-.02-.24-.01-.14-.02-.28-.02-.43 0-.11 0-.22.01-.33h.02c.24-.05.53-.13.81-.24zm-1.23-.22s-.01 0-.01-.01c0 0-.01 0-.01-.01.01.01.02.01.02.02zm-.09.86c.01 0 .01 0 0 0h.04c0 .21.02.42.04.62.02.18.05.37.1.55-.04 0-.07-.01-.11-.01h-.03c-.02 0-.04-.01-.06-.01l-.13-.03c-.02-.01-.04-.01-.06-.02-.01 0-.01 0-.02-.01-.04-.02-.07-.04-.11-.06-.01 0-.01-.01-.02-.01a.138.138 0 00-.04-.03.138.138 0 01-.03-.04c-.01-.02-.01-.02-.01-.01l.01.01-.01-.01-.01-.01c-.01-.02-.02-.03-.03-.05 0-.01-.01-.01-.01-.02s-.02-.05-.02-.06c-.01-.02-.01-.05-.02-.07 0-.01 0-.03-.01-.04 0-.02 0-.05-.01-.07v-.11c.04-.04.07-.08.1-.13.05-.08.08-.16.11-.25.02-.01.03-.02.05-.03.01-.01.03-.02.05-.03h.01c.02-.01.03-.01.05-.02.07-.03.13-.04.18-.05zm-1.31-.97c.01 0 .03.01.04.01.03.01.06.01.09.02l.09.03s.01 0 .02.01c.01 0 .02.01.02.01.03.01.06.03.09.05.01 0 .01.01.02.01.01.01.02.02.04.02.01 0 .01.01.01.01.02.02.04.03.05.05.01.01.02.03.03.04l.01.01v.01c.01.01.01.02.02.03.01.01.02.03.03.05.02.13.04.25.07.37 0 .04 0 .07-.01.11v.04c-.11.11-.18.24-.22.39l-.02.02c-.02.01-.04.03-.07.04l-.06.03c-.01 0-.02.01-.03.01-.05.02-.11.04-.17.05-.03.01-.06.01-.09.02-.01 0-.03.01-.04.01h-.02c-.02 0-.02.01-.01 0-.02.01-.06 0-.08.01-.03 0-.06.01-.1.01h-.03c.03-.12.05-.24.08-.36.06-.37.1-.75.1-1.12.03 0 .06 0 .09.01h.05zm-4.18-.77c.32-.12.63-.26.93-.42.12-.06.24-.13.36-.2.37.22.77.41 1.18.57.34.14.68.25 1.04.29.06.01.11.01.17.01 0 .08.01.15.01.23.01.34-.01.68-.05 1.01 0 .02-.01.04-.01.06v.05c-.01.05-.02.1-.02.15l-.06.31c-.05.21-.11.42-.19.62l-.02.06v.01c-.01.01-.01.02-.02.04-.02.05-.05.1-.07.15-.05.1-.1.19-.16.28-.03.05-.06.09-.09.13l-.01.01a.18.18 0 00-.05.07c-.07.08-.15.16-.23.23-.02.02-.04.03-.06.05h-.01l-.02.02c-.04.03-.09.06-.13.09-.05.03-.1.06-.15.08-.02.01-.05.02-.07.04-.01.01-.03.01-.04.02h-.01c-.07.03-.14.05-.22.07h-.01c-.03 0-.06.01-.09.03-.01 0-.02 0-.03.01-.06.01-.12.02-.19.03h-.01c-.02 0-.03 0-.05.01-.03 0-.07.01-.1.01-.14.01-.29.01-.43 0-.03 0-.07-.01-.1-.01h-.06c-.06-.01-.13-.02-.19-.04-.03-.02-.06-.03-.09-.02l-.09-.03c-.03-.01-.05-.02-.08-.03-.01-.01-.03-.01-.04-.02-.01 0-.02-.01-.03-.01h-.01c-.09-.05-.18-.09-.27-.14-.05-.03-.09-.06-.13-.09-.01-.01-.02-.01-.03-.02l-.06-.06a2.39 2.39 0 01-.22-.23c-.02-.02-.03-.04-.05-.06a.138.138 0 01-.03-.04c-.03-.04-.06-.09-.09-.13-.06-.09-.11-.19-.16-.28-.02-.05-.04-.09-.06-.14-.01-.01-.01-.03-.02-.04-.01-.03-.02-.05-.03-.08-.04-.1-.07-.2-.1-.3-.06-.2-.1-.41-.13-.62 0-.03-.01-.05-.01-.07v-.03c-.01-.05-.01-.1-.02-.15-.01-.1-.02-.19-.02-.29-.06-.16-.07-.33-.06-.5v-.13c0-.1.01-.2.01-.3h.04c.36-.03.7-.13 1.04-.26zm-2.52 2.82c-.01 0-.02.01-.02.01-.05.02-.09.03-.14.05-.02.01-.05.01-.07.02h-.05.01c-.02.01-.06.01-.08.01H7.7c.02-.09.04-.17.05-.26.05-.3.08-.61.09-.92h.05c.01 0 .03.01.04.01.03.01.05.01.08.02.01 0 .01 0 .02.01a1.018 1.018 0 00.39.59v.05c0 .01 0 .02-.01.03 0 .02-.01.04-.02.06-.01.02-.01.04-.02.05v.01c0 .01-.01.01-.01.01 0 .01-.01.02-.01.02-.01.02-.02.03-.03.05 0 .01-.01.01-.01.02-.02.03-.05.05-.07.07-.01 0-.02.01-.02.02-.02.01-.03.02-.05.03-.02.03-.03.03-.06.04.01 0 .01 0 0 0h-.02c.01.01.01.01.02 0zm1.02-.59c-.03 0-.06-.01-.08-.01-.05-.01-.11-.02-.16-.04-.02-.01-.05-.01-.07-.02-.01 0-.02-.01-.03-.01-.04-.02-.09-.04-.13-.07-.01-.01-.02-.01-.03-.02l-.01-.01-.03-.03-.05-.05c-.01-.01-.01-.02-.02-.02 0 0 0-.01-.01-.01-.01-.02-.03-.04-.04-.06-.01-.01-.01-.02-.02-.03 0-.01-.01-.02-.01-.03 0-.01-.01-.02-.01-.04-.01-.03-.02-.05-.02-.08 0-.02-.01-.03-.01-.05v-.26c0-.01.01-.03.01-.04-.01-.04 0-.07.01-.09 0-.01 0-.01.01-.02l.01-.01c.01-.02.02-.05.04-.07 0-.02.01-.04.02-.06l.04-.04c.02-.02.03-.04.05-.05l.03-.03.01-.01.01-.01c.01 0 .01-.01.02-.01.01-.01.02-.02.04-.02.03-.02.06-.03.09-.05.01-.01.02-.02.04-.02h.01c.03-.02.06-.03.09-.04.07-.02.14-.04.22-.05a6.62 6.62 0 00.16 1.48c-.05 0-.09-.01-.14-.01h-.02c-.01-.01-.01-.01-.02-.01zm.04-2.4c0-.01-.01-.01 0 0zM8.04 9.7c0 .02-.01.03-.01.05-.02.05-.03.1-.03.16-.06-.02-.11-.02-.17-.03V9.8a.58.58 0 00.21-.1zm-.23-.3c-.01 0-.01 0 0 0 .03-.03.01 0 0 0zm-4.66 0c.01 0 .01.01.02.01-.01 0-.01 0-.02-.01zm.03 2.03h-.03c-.02 0-.05-.01-.07-.01a.929.929 0 01-.13-.04c-.02-.01-.04-.01-.06-.02-.01 0-.01-.01-.02-.01-.04-.02-.07-.04-.11-.06-.01 0-.01-.01-.02-.01l-.01-.01c-.01-.01-.02-.02-.03-.02l-.04-.04c0-.01-.01-.01-.01-.02v-.01c-.01-.02-.02-.03-.03-.05 0-.01-.01-.02-.01-.03l-.01-.01c0-.01-.01-.02-.01-.03-.01-.02-.01-.05-.02-.07 0-.01-.01-.03-.01-.04v.01c-.01-.02-.01-.05-.01-.07v-.11c.01-.01.01-.04.01-.06 0-.02.01-.04.02-.06 0-.01.01-.02.01-.03.01-.02.02-.04.03-.05.01-.02.02-.03.03-.05l.02-.02c.02-.03.06-.08.1-.09-.01 0-.01.01-.02.01.01-.01.01-.01.02-.01.01-.01.02-.01.03-.02.02-.01.05-.03.07-.04.01-.01.02-.01.03-.01h.01c.03-.01.05-.02.08-.03l.14-.03a5.434 5.434 0 00.12 1.17.09.09 0 00-.07-.03zm1.49 1.45c-.02-.01-.05-.02-.07-.03a.746.746 0 01-.12-.07c-.04-.02-.07-.05-.11-.07-.01-.01-.02-.01-.03-.02-.02-.01-.03-.03-.05-.04-.07-.06-.13-.12-.19-.19 0-.03-.02-.06-.02-.06s0 .01.01.02c-.01-.02-.02-.03-.04-.05-.02-.04-.05-.07-.07-.11-.05-.08-.09-.15-.13-.24-.01-.02-.02-.03-.02-.05 0-.01-.01-.02-.01-.03v-.01c0-.01-.01-.02-.01-.03a1.975 1.975 0 01-.11-.33c-.05-.17-.08-.34-.11-.51 0-.01 0-.03-.01-.04v-.05c-.01-.04-.01-.08-.01-.12-.01-.08-.01-.16-.02-.24-.01-.14-.01-.28-.01-.42v-.11c0-.07.01-.15.01-.22.3-.02.59-.1.87-.21.27-.1.53-.22.79-.36.1-.05.19-.1.29-.16.29.17.62.33.95.46.28.11.57.2.87.24.04.01.08.01.12.01 0 .05 0 .11.01.16.01.28-.01.56-.04.84 0 .02-.01.04-.01.06v.02c-.01.04-.01.08-.02.13-.01.09-.03.17-.05.26-.04.18-.09.35-.16.52-.01.02-.01.03-.02.05v.02c0 .01-.01.02-.01.03l-.06.12c-.04.08-.08.16-.13.23-.02.04-.05.07-.08.11l-.01.01-.01.01c-.01.02-.03.03-.04.05-.06.07-.12.13-.19.19-.02.01-.03.03-.05.04-.01 0-.01.01-.02.01-.04.03-.08.05-.11.08-.04.03-.08.05-.12.07l-.06.03c-.01 0-.02.01-.03.01l-.18.06c-.03 0-.06.01-.08.02-.01 0-.02 0-.03.01l-.15.03h-.04c-.03 0-.06.01-.09.01-.12.01-.24.01-.36 0-.03 0-.05 0-.08-.01h-.04l-.15-.03a.31.31 0 00-.08-.02c-.02-.01-.05-.01-.07-.02a.145.145 0 00-.07-.02c-.01 0-.02-.01-.03-.01h-.01s-.01 0-.01-.01c-.06 0-.06-.01-.05 0a.076.076 0 00-.04-.02zm1.16.86c0 .02 0 .03-.01.05v.02c-.01.07-.02.14-.04.21-.01.03-.02.06-.03.1-.01.02-.02.05-.03.07v.01s0 .01-.01.01v.01c-.01.01-.01.03-.02.04-.01.03-.03.05-.05.08l-.01.01-.03.03-.03.03-.01.01c-.01.01-.02.01-.03.02-.01 0-.03.01-.04.01h-.11c-.01 0-.03-.01-.04-.01 0 0 .01 0 .01.01-.01 0-.01-.01-.02-.01h.01l-.02-.01.01.01c-.01 0-.01-.01-.01-.01-.01 0-.01-.01-.02-.01h-.01l-.03-.03-.03-.03c-.02-.03-.03-.05-.05-.08 0 0 0-.01-.01-.01l-.01-.01c0-.01 0-.01-.01-.02v-.01c-.01-.03-.02-.06-.03-.1-.02-.07-.03-.14-.04-.2v-.01c0 .01.01.02 0-.02v-.04c0-.03-.01-.07-.01-.1-.01-.11-.01-.23-.01-.34.07.01.13.02.2.02.19.01.38.01.57-.02 0 .08 0 .16-.01.24.02.01.01.04.01.08zm2.37 1.02c0 .01 0 .02 0 0zm0-.01s.01 0 0 0c.01 0 0 0 0 0zm.16-.35s-.01.02 0 0zm1.1-1.08a3.1 3.1 0 00-.96.44c-.07.05-.15.11-.21.17-.19-.1-.38-.18-.58-.26-.14-.05-.27-.11-.42-.13-.14-.01-.29-.01-.43-.01-.18 0-.35 0-.53.01h-.11v-.24c.13-.04.26-.1.38-.18.34-.21.6-.52.78-.87.07-.14.13-.28.18-.43.41-.01.86-.09 1.08-.46.05-.09.09-.19.11-.29.2.06.42.08.64.09.02.06.04.13.07.19.17.43.41.84.76 1.14.23.2.5.35.78.44-.01.12-.01.24-.01.36-.22-.01-.44-.01-.67-.01h-.55c-.09 0-.2.01-.31.04zm.4 2.79c-.01-.01-.02-.03-.03-.04.08-.25.17-.51.25-.76.01-.04.03-.08.04-.12.04-.12-.07-.24-.18-.24h-.33v-.52c.25-.19.5-.38.75-.56v2.84c-.17-.2-.34-.4-.5-.6zm2.52-2.63c0 .02 0 .04-.01.06v.02c-.01.08-.03.17-.05.25l-.03.12c-.01.02-.01.04-.02.06 0 .01-.01.02-.01.03v.01c0 .01-.01.02-.01.03-.01.02-.02.03-.03.05l-.06.09-.01.01-.04.04-.03.03c-.01 0-.01.01-.02.01-.01.01-.03.02-.05.03H12c-.02.01-.03.01-.05.01h-.15c-.02 0-.04-.01-.05-.02-.02-.01-.03-.02-.05-.03l-.01-.01-.03-.03c-.01-.01-.02-.03-.04-.04l-.01-.01-.06-.09c-.01-.02-.02-.03-.02-.05 0-.01 0-.01-.01-.02-.01-.04-.03-.08-.04-.12-.02-.08-.04-.16-.05-.24v-.02c0-.02-.01-.04-.01-.07 0-.04-.01-.08-.01-.12-.01-.15-.01-.3 0-.46.09.02.19.03.28.03.24.02.48.01.72-.03 0 .11 0 .22-.01.33-.02.07-.02.11-.02.15zm1.77.95v.52h-.33c-.12 0-.22.12-.18.24.09.28.19.57.28.85 0 .01.01.02.01.03-.18.21-.35.42-.53.63v-2.84c.23.18.47.35.7.53.02.01.03.03.05.04zm3.05-.9c-.15 0-.31 0-.46.01-.14.01-.25.05-.38.1-.24.09-.48.19-.71.32-.03.02-.06.05-.07.08-.06-.06-.12-.11-.18-.16-.3-.24-.66-.41-1.03-.53-.26-.08-.54-.07-.82-.07-.26 0-.52 0-.78.01.01-.11.01-.23 0-.35.17-.05.33-.13.48-.22.4-.24.71-.61.92-1.03.09-.17.16-.35.22-.53.27 0 .56-.03.81-.14.02.1.05.2.09.29.1.2.27.33.47.41.2.08.42.1.64.11l.06.15c.15.36.36.71.66.97.19.16.41.28.64.36v.24c-.18-.01-.37-.02-.56-.02zm1.21.86s0-.01 0 0l.01.01c0-.01-.01-.01-.01-.01zm.52-.75c0 .07-.01.14-.01.2v.05c-.01.04-.01.07-.02.11-.01.07-.03.13-.06.2v.01c0 .01 0 .01-.01.01 0 .01 0 .01-.01.01 0 0 0 .01-.01.01-.02.03-.03.06-.05.09-.01.01-.02.02-.02.03l-.02.02c-.02.01-.02.02-.02.02h.01c.01 0 .01-.01.02-.01l-.01.01c-.01 0-.01.01-.01.01-.01.01-.02.01-.03.02-.01 0-.03.01-.04.01h-.11c-.02 0-.03-.01-.05-.01-.01-.01-.02-.01-.03-.02h-.01l-.02-.01-.01-.01-.03-.03-.01-.01c-.02-.03-.03-.05-.05-.08a.076.076 0 01-.02-.04v-.02c0-.01-.01-.02 0-.02l-.03-.06c-.02-.07-.04-.14-.05-.2-.01-.03-.01-.06-.02-.1v-.01c0-.02 0-.04-.01-.06-.01-.11-.02-.23-.02-.34.07.01.14.02.21.02.19.01.38 0 .56-.02-.01.06-.01.14-.01.22zm2.88 2.79c-.1 0-.19.08-.19.19v1.36c0 .1.09.2.19.19.1 0 .19-.08.19-.19v-1.36c0-.1-.09-.2-.19-.19z"/><path class="st0" d="M19.57 10.91c.11 0 .2-.14.2-.32s-.09-.32-.2-.32c-.11 0-.2.14-.2.32 0 .17.09.32.2.32zm-2.12 0c.11 0 .2-.14.2-.32s-.09-.32-.2-.32c-.11 0-.2.14-.2.32.01.17.09.32.2.32zm.18.68c.12.2.32.35.53.43.36.14.77.03 1.06-.22.07-.06.14-.14.19-.22.05-.08.02-.22-.07-.26-.09-.05-.2-.02-.26.07 0 .01-.01.01-.01.02v.01c-.02.02-.04.05-.07.07-.02.02-.04.04-.06.05l-.01.01-.01.01c-.01.01-.01.01-.01 0l-.02.02c-.03.02-.06.04-.09.05-.01.01-.03.01-.04.02h-.01c-.01 0-.02 0-.02.01l-.11.03h-.2.02c-.01 0-.05-.01-.06-.01-.02-.01-.05-.01-.07-.02-.02-.01-.03-.01-.05-.02l-.01-.01a.218.218 0 01-.08-.05c-.01-.01-.03-.02-.04-.03h-.01l-.06-.06c-.02-.02-.04-.04-.05-.06 0-.01-.01-.01-.01-.02-.01-.01-.02-.03-.03-.04a.196.196 0 00-.26-.07c-.1.09-.13.2-.08.29zm-6.96-1.49c.13 0 .24-.17.24-.38s-.11-.38-.24-.38-.24.17-.24.38c0 .2.11.38.24.38zm2.53 0c.13 0 .24-.17.24-.38s-.11-.38-.24-.38-.24.17-.24.38c0 .2.11.38.24.38zm-2.31.8c.15.24.41.42.67.51.42.14.88.02 1.19-.28.07-.07.14-.15.19-.23.05-.09.02-.21-.07-.26a.193.193 0 00-.26.07c-.01.01-.02.03-.03.04v.01c-.02.02-.03.04-.05.06l-.06.06-.03.03c-.01.01-.01.01-.02.01 0 0 .01 0 .01-.01l-.01.01-.09.06c-.02.01-.04.02-.05.03-.01 0-.02.01-.03.01-.04.01-.08.03-.12.04-.02.01-.05.01-.07.01h-.23c-.02 0-.05-.01-.07-.02-.02-.01-.05-.01-.07-.02-.01 0-.03-.01-.04-.01h.01c-.04-.01-.08-.04-.12-.06l-.09-.06s-.01 0-.01-.01c0 0-.01 0-.01-.01-.01-.01-.03-.02-.04-.04-.05-.04-.09-.09-.13-.13v-.01c0-.01-.01-.01-.01-.02-.05-.08-.17-.13-.26-.07-.11.08-.15.2-.1.29z"/></svg>