<svg version="1.1" id="Layer_1" xmlns="http://www.w3.org/2000/svg" x="0" y="0" viewBox="0 0 34 74" xml:space="preserve"><style>.st1{fill:#b60e3f}</style><path class="st1" d="M14.23 9.62s-.78-1.18-.78-1.7-.13-1.49 0-1.6c.13-.1.91-.63.91-.76s.26-.52.39-.52.52-.13.65-.26.39-.13.39-.26.13-.26.39-.39.76 0 .84 0 .6-.13.73-.13.78.13.78.13l.39.26s.5-.06.44.1c-.05.16 0 .5 0 .5l.47.05s.26-.39.39-.39.52.13.52.13l.39.26.65.13v.26s.39.01.52.14.39.52.39.52v.87s.13.04.13.3-.26.65-.26.65l-.13.26s.13.26 0 .39 0 .39-.26.39h-.52s0 .13-.13.26-.29.39-.29.39h-.41s.44 1.18.83 1.96c.39.78 1.05 1.57 1.57 1.96.52.39 1.7 1.83 1.83 2.48s.13 4.18-.52 6.4-.65 1.57-.78 2.35-.26 1.31-.39 1.44-.71-.13-.88 0-.43.26-.43.26 1.44 1.31 1.7 2.09c.26.78.26 1.18.39 1.7s.65 1.05.78 1.57-.13 3.01-.13 3.01 0 1.57.13 3.14-.52 5.88-.39 7.06c.13 1.18.53 7.15.59 7.63s-.07 6.36-.07 6.75c0 .39.52.52.65 1.05.13.52-.26.87 0 1.09.26.22.39.22.39.74s.52 1.31.26 2.09c-.26.78-1.18 1.18-1.18 1.44s.39.13.39.39.39.78 0 1.05c-.39.26-.65.26-.52.39s.65.13.52.39-.13.65-1.05 1.05-1.18.52-1.7.26-1.05-.52-1.18-.52-.26.39-.39.52-.77.55-1.36.6c-.6.05-1.38.18-1.64-.21s0-.91-.26-1.05c-.26-.13-.52-.39-1.05-.39s-1.57.26-1.96.13c-.39-.13-1.42-.42-1.63-.86-.2-.44-.07-.58-.46-.71s-1.31.13-1.57-.39.2-1.24.46-1.37c.26-.13-.13-.39.26-.65s.91-.52 1.18-.52.13.26.91-.13 1.05-.39 1.18-.39c.13 0 .13-2.09.26-3.27.13-1.18.13-2.74.13-2.74s-1.18-1.05-1.7-1.7c-.52-.65-.52-1.7-.78-2.09s-1.99-3.62-1.97-4.16c.01-.54.54-3.03.4-3.55-.13-.52-.39-.91-.13-3.14.26-2.22 1.83-7.06 2.09-7.45s0-2.22-.13-2.48c-.13-.26-.39-.39-.52-.78s-.26-.65-.13-.91.26-.26.13-.52-.65-.91-.78-1.7c-.13-.78-.13-2.09 0-2.48.13-.39.65-.65.65-.91s-.52-.52-.78-1.18-.65-2.48-.65-2.74c0-.26-.03-.88-.14-.9-.12-.02-.38-.28-.64-.28s-.91.13-.91.13v.72l-.26-.07-.13-.65-.51.11-.26-.13s.26-.52.52-.52 0-.65.26-.65.26-.39.52-.52.91-.26.91-.26l-.13-.26s-.65 0-.78-.26-.52-.52-.52-.65-.13-.13-.13-.26.13-.26-.13-.26-.13.13-.26 0-.39-.91-.39-.91l.52-.52.52-.13.39.13.39-.13s.39-.13.52 0 .78.65.78.65.78.65.78.78.26 1.57.26 1.57v.26l.91.39s.39-.91.78-1.18c.39-.26.91-.52.91-.52h.13s.26-.52.39-.65.52-.26.52-.26.26-.65.39-.65.79-.51.79-.51l.39-.4-.13-1.7s-.52.26-.78.26-.91.13-.91-.13-.13-.78-.13-.78h-.23v-.39l-.39-.13-.13-.52-.65.13h-.13l-.07-1.93z"/><path class="st1" d="M12.01 14.33c-.6.79-1.28 1.68-1.91 2.46-.2.27-.46.51-.64.8-.24.41-.47.93-.68 1.37-.38.77-.77 1.55-1.2 2.29l-.02-.01c.46-1.36 1.02-2.68 1.82-3.89.37-.4.93-1.04 1.28-1.46.45-.52.9-1.05 1.34-1.58l.01.02z"/><path class="st1" d="M11.28 15.22s.7-.15.84 0c.15.15-.84 0-.84 0zm2.23-3.05l-.26.26c-.13.13-.52.39-.65.39s-.26-.52-.26-.52-.52.78-.52 1.05.13.78.26.91.78.39 1.05.26c.26-.13.91-.39.91-.39s-.65.13-.65 0 .39-.65.39-.65l.39-.26s-.13-.52-.26-.65l-.4-.4z"/></svg>