<svg version="1.1" id="Layer_1" xmlns="http://www.w3.org/2000/svg" x="0" y="0" viewBox="0 0 24 24" xml:space="preserve"><style>.st0{fill:#b60e3f}</style><path class="st0" d="M22 14.54c-.01-.18-.02-.35-.07-.52-.05-.18-.11-.36-.17-.54-.16-.49-.34-.98-.51-1.46-.15-.42-.31-.85-.47-1.27-.06-.16-.12-.31-.16-.47-.12-.47-.24-.95-.38-1.42-.05-.19-.1-.38-.19-.56-.12-.26-.47-.38-.72-.46-.07-.02-.15-.04-.23-.05-.08-.01-.16.02-.23.04-.18.04-.36.09-.54.13 0-.16-.01-.32-.02-.48-.05-.62-.18-1.23-.44-1.79-.15-.31-.35-.59-.57-.85-.24-.28-.52-.53-.83-.72-.47-.3-1.01-.44-1.57-.47-.46-.02-.93 0-1.38.08-.6.11-1.16.38-1.62.79-.58.52-1 1.26-1.19 2.01-.15.61-.14 1.26 0 1.88.07.29.16.58.29.85 0 .02-.02.03-.03.04-.21.21-.33.48-.36.77-.03.28.06.57.22.79.34.47.91.68 1.47.64.17.39.42.75.75 1.01.06.05.13.09.19.13l-.15.58c-.07.26-.14.53-.2.79-.02.08 0 .16.01.24.02.12.04.23.06.34.08.35.19.69.37 1 .2.34.51.64.91.71.44.07.86-.08 1.16-.41.27-.29.43-.67.54-1.04.06-.22.11-.44.14-.67h2.11l.12.74.24 1.46v.02c-.15.01-.3.01-.45.02-.13-.3-.31-.58-.51-.83-.08-.09-.25-.08-.33 0-.09.1-.08.22-.01.32-.01-.01-.02-.02-.01-.02.01.02.03.04.04.06.05.07.1.14.14.2.06.09.12.19.17.29.03.05.05.11.08.16v.01s.01.02.01.03l.03.09c.02.05.03.1.04.16 0 .01 0 .03.01.04v.16c0 .13-.01.26-.02.4-.04.7-.13 1.39-.21 2.08-.01.1-.03.21-.04.31h-5.57c-.21 0-.41-.01-.62 0l-.12-.73c-.08-.48-.16-.97-.23-1.45-.01-.08-.02-.15-.04-.23.04-.08.08-.17.12-.25.31-.62.61-1.24.92-1.86l.63-1.29c.08-.16.11-.36.12-.54.01-.21-.02-.42-.12-.6-.12-.23-.35-.36-.59-.43-.54-.15-1.16.02-1.51.46-.32.4-.42.92-.46 1.42-.01.07-.01.14-.01.21-.09.21-.24.41-.38.62-.24.35-.49.7-.73 1.04-.02.02-.03.04-.05.07-.02-.01-.03-.02-.05-.02-.33-.58-.68-1.16-1.16-1.63-.06-.06-.11-.11-.17-.16l-.03-.52c.03 0 .06-.01.09-.01.11-.02.22-.04.32-.09.1-.05.18-.14.24-.23.14-.2.22-.45.29-.68.05-.16.1-.32.14-.49.01-.02.01-.04.01-.06v-.49c.21-.07.41-.19.53-.37.15-.23.07-.51.01-.76-.13-.62-.32-1.22-.51-1.81-.04-.11-.07-.21-.11-.32.51-.39.88-.97.8-1.63-.1-.76-.7-1.35-1.35-1.7-.1-.05-.18-.05-.29-.07-.18-.02-.36-.04-.54-.05-.63-.05-1.27-.03-1.9.06-.7.1-1.43.3-2.01.73-.31.22-.57.5-.76.83-.26.48-.39 1.04-.4 1.59-.01.81.25 1.63.67 2.31-.2.27-.33.6-.35.94-.02.2.01.41.12.57.08.12.19.23.3.32.29.24.61.44.94.62.31.18.64.34.96.49.14.07.29.13.43.2 0 .07 0 .14.01.21v.08c-.16.06-.32.14-.47.22-.34.19-.69.48-.79.87-.03.11-.03.22-.03.33v3.95c0 .18-.01.37 0 .55v.01c0 .12.11.23.23.23h3.99c.18 0 .37.01.56 0h.01c.12 0 .23-.11.23-.23v-1.18c.11.02.22.03.33.04.16.01.32-.05.46-.11.25-.11.47-.27.67-.45.11-.1.23-.21.33-.33.02.11.03.21.05.32.08.48.16.97.23 1.45.02.11.04.22.05.33.02.1.13.17.22.17h5.78c.27 0 .53.01.8 0h.01c.14 0 .21-.11.23-.23l.18-1.46c.04-.36.08-.73.1-1.09.02-.22.04-.45.01-.68.16-.01.32-.01.48-.02.05.03.12.04.17.02l.06-.03c.17-.01.33-.01.5-.01.18 0 .35-.01.53-.01.18 0 .37 0 .55-.05.32-.09.59-.29.8-.54.16-.19.28-.4.42-.59.23-.33.24-.75.23-1.12zM7.84 13.17c0-.01 0-.01 0 0zm.86-1.89zm-4.6 1.63c-.32-.17-.64-.35-.93-.57-.01-.01-.02-.02-.03-.02 0 0-.01 0-.01-.01 0 0-.01 0-.01-.01-.03-.02-.06-.05-.09-.07-.05-.04-.1-.09-.15-.14l-.03-.03c-.01-.02-.03-.04-.04-.06-.01-.01-.01-.02-.01-.03-.01-.02-.01-.04-.02-.06v-.27c0-.03.01-.06.02-.09.01-.07.04-.13.06-.19 0-.01.01-.02.01-.03v-.01c.01-.03.03-.06.04-.09.05-.09.1-.17.15-.25 0-.01.01-.01.01-.02l.01-.01c.01-.01.01-.02.02-.03.06-.07.1-.2.04-.28-.1-.13-.18-.28-.25-.42-.02-.07-.06-.14-.09-.22-.01-.02-.02-.03-.02-.05v-.01c0-.01 0-.01-.01-.01-.02-.05-.04-.1-.06-.14-.07-.2-.13-.4-.18-.61-.01-.07-.02-.13-.03-.18 0-.01 0-.02-.01-.04v-.04c0-.02 0-.04-.01-.05-.01-.14-.02-.26-.02-.39s.01-.26.02-.39v-.04c.02-.04.02-.07.03-.11.01-.07.03-.14.04-.2.04-.14.08-.28.14-.42 0-.01 0-.01.01-.01V7.3c0-.01.01-.01.01-.02.01-.02.02-.04.03-.05.02-.06.04-.1.06-.14.04-.07.09-.15.14-.21.01-.02.02-.03.03-.05l.01-.01c.03-.03.05-.06.08-.1l.18-.18c.03-.02.06-.05.08-.07.01-.01.02-.02.04-.03 0 0 .01 0 .01-.01.01 0 .02-.01.03-.02.13-.1.27-.18.42-.26.03-.01.07-.03.1-.05.02 0 .04-.01.06-.02.01 0 .03-.01.04-.02h-.01c.07-.03.15-.06.23-.08.16-.06.33-.1.49-.14.17-.04.33-.07.5-.1.02 0 .04-.01.06-.01h.01c.04-.01.08-.01.12-.01l.26-.03c.31-.02.61-.03.92-.02.24.01.48.02.71.04l.24.03h.08c.06.03.12.06.17.1.06.04.12.07.17.11.02.01.04.02.06.04 0 0 0 .01.01.01l.01.01.01.01c.02.01.03.03.05.04.07.06.14.12.2.19.03.03.07.07.1.11.05.03.07.04.08.06 0 0 .01.01.01.02l.01.02s-.01-.01-.01-.02l.01.02c.06.08.11.17.16.25.01.01.02.03.03.05s.01.01.01.02c.02.05.03.1.05.15.01.03.01.05.02.08 0 .01.01.03.01.05v.14c0 .05-.01.1-.01.16v.02c0 .04 0 .07-.01.1-.01.05-.03.09-.04.14 0 0 0 .01-.01.02-.01.03-.03.05-.04.08-.02.04-.04.08-.07.12a.21.21 0 01-.04.06c-.01.01-.04.04-.04.06l-.02.02a.12.12 0 01-.05.05c-.03.04-.06.07-.09.11-.07.06-.14.11-.2.17 0 0-.01 0-.01.01-.02.01-.04.02-.05.03-.04.03-.07.05-.1.07-.06.04-.11.07-.17.1-.05.03-.1.05-.14.07-.01 0-.02.01-.04.01h-.01c-.02 0-.04 0-.07.01-.07 0-.14.01-.2.01-.18 0-.36 0-.54-.01-.18-.01-.36-.01-.54-.03-.07 0-.14-.01-.22-.02h-.07c-.01 0-.02 0-.03-.01-.01 0-.02-.01-.04-.01-.01 0-.01 0-.02-.01-.03-.02-.07-.04-.11-.07-.02 0-.03-.01-.05-.02 0 0-.01 0-.01-.01 0 0-.01 0-.01-.01l-.01-.01c-.02-.02-.04-.03-.05-.05-.02-.01-.03-.03-.05-.04 0 0-.02-.02-.02-.03v-.01c-.01 0-.01-.01-.02-.01a.161.161 0 00-.04-.07c0-.01-.01-.03-.02-.04 0-.01-.01-.02-.01-.03 0-.02-.01-.05-.02-.07 0-.01 0-.02-.01-.03 0-.01 0-.07-.01-.03v-.14c0-.03 0-.05.01-.08v-.01c0-.02.01-.04.01-.06 0-.02.01-.04.02-.07 0-.01.01-.02.01-.02.01-.01.02-.02.02-.01.02-.03.03-.06.05-.08l.01-.01c0-.02.01-.03.03-.04l.04-.04h.01c.04-.04.07-.06.11-.07.02-.01.04-.02.05-.03 0 0 .01 0 .01-.01.08-.02.16-.05.24-.07.04-.01.07-.02.11-.02.02 0 .03-.01.05-.01h.01c.07-.01.13-.01.2-.01h.2c.12 0 .24-.11.23-.23 0-.13-.1-.24-.23-.24-.61 0-1.42.12-1.6.81-.07.26-.06.53.04.77.08.2.22.35.38.48.02.01.04.03.06.04-.07.1-.14.21-.2.32-.07.13-.14.28-.18.43-.05.17-.06.36-.07.54 0 .05 0 .1-.01.15-.09.01-.18.02-.28.04-.27.06-.58.16-.74.4-.17.25-.06.55.08.78.15.25.35.48.56.69.1.11.21.21.32.31.01.29.02.58.02.87-.32-.15-.63-.3-.95-.47zm1.48-5.36s0-.01.01-.01c-.01 0-.01.01-.01.01zm-1.32 7.94v-.03c.01-.04.02-.09.04-.13 0-.01.01-.02.01-.02.01-.02.03-.05.04-.07.01-.02.02-.03.03-.05.01-.01.01-.02.02-.03.03-.04.07-.08.11-.11.02-.02.04-.03.06-.05l.02-.02c.04-.03.09-.06.13-.09.08-.05.17-.1.26-.14.04-.02.07-.04.11-.05.02-.01.03-.02.05-.02h.01c.07-.03.14-.06.22-.08.1-.03.17-.12.17-.22-.01-.28-.02-.56-.02-.83l-.03-1.05c0-.08-.01-.15-.07-.21-.02-.02-.05-.04-.07-.07-.14-.13-.27-.26-.4-.4l-.24-.27c-.01-.01-.01-.02-.02-.03l-.01-.01c-.02-.02-.03-.04-.05-.07-.03-.05-.06-.09-.09-.14l-.06-.12c0 .01.01.01.01.02 0 0 0-.01-.01-.01v-.01c0-.01 0-.01-.01-.02-.01-.02-.01-.04-.02-.06v-.03c0-.01 0-.02.01-.03 0-.01.01-.01.01-.02l.01-.01.02-.02c.02 0 .04-.03.06-.04.02-.01.04-.02.07-.04.01 0 .02-.01.03-.01.02-.01.05-.02.08-.03.05-.02.1-.03.16-.04l.15-.03c.02 0 .05-.01.07-.01h.01c.06-.01.12-.01.18-.02h.03c.12 0 .23-.1.23-.23v-.27c0-.09.01-.17.01-.25 0-.04.01-.07.01-.11v-.02c0-.02.01-.05.01-.07a.41.41 0 01.03-.14c0-.01.01-.03.01-.04v-.01s0-.01.01-.01v-.01l-.01.02c.02-.02.03-.07.04-.09.02-.04.04-.07.06-.1.07-.12.14-.24.22-.36A.21.21 0 016 9.02c.06.01.13.01.19.02.37.03.73.05 1.1.05.15 0 .3 0 .45-.02.09-.03.18-.07.26-.11.01-.01.03-.02.05-.02.1.3.19.6.28.9.09.3.18.6.26.9.03.12.06.23.08.35.01.03.01.06.02.09v.14s-.01.01-.01.02c-.01.01-.02.03-.03.03l-.02.02c-.01.01-.03.02-.04.03-.03.02-.06.03-.09.05h-.01c-.02.01-.03.01-.05.02l-.09.03c-.03.01-.06.01-.08.02-.1.02-.17.13-.17.22v.46c-.1.01-.2.01-.3.02-.14.01-.29.01-.43 0-.03 0-.06 0-.09-.01h-.04c-.02 0-.05-.01-.07-.01h-.01s-.01 0-.01-.01c-.01-.01-.03-.02-.04-.03 0 0-.01-.01-.02-.01-.01-.01-.02-.01-.02-.02-.04-.05-.06-.06-.07-.07-.03-.03-.07-.06-.1-.09-.09-.08-.24-.09-.33 0-.08.09-.09.24 0 .33.09.08.19.17.29.24.12.09.25.11.4.12.25.02.5.01.75-.01-.01.02-.01.04-.02.06-.03.11-.07.22-.11.33-.01.03-.02.06-.03.08 0 .01-.01.03-.02.04-.02.05-.04.1-.07.14-.02.04-.06.07-.07.11l-.01.01-.01.01s-.01 0-.01.01c0 0 0 .01-.02.01h-.01c-.01 0-.01 0-.02.01-.04.01-.09.02-.14.03-.01 0-.03 0-.04.01-.02 0-.05.01-.07.01-.06 0-.11.01-.17.01h-.33c-.14-.01-.29-.01-.43-.03-.12-.01-.24.12-.23.23.01.14.1.22.23.23.2.01.38.03.56.03.01.06.01.13.01.2 0 .1.01.19.01.29 0 .08 0 .17.04.23s.1.11.15.15l.3.3c.21.23.38.48.55.76-.39-.18-.77-.37-1.16-.55-.1-.05-.2-.1-.3-.14-.11-.05-.25-.03-.32.08-.05.1-.03.26.08.32.28.13.55.26.83.39.04.02.08.04.13.06-.08.18-.15.36-.23.54-.16.37-.31.75-.47 1.12 0 .01-.01.02-.01.03-.3-.11-.6-.22-.9-.34-.09-.03-.17-.07-.26-.1-.04-.02-.08-.03-.13-.05-.01 0-.01-.01-.02-.01 0 0-.01 0-.01-.01-.01-.01-.03-.01-.04-.02-.13-.05-.26-.11-.38-.17-.07-.04-.15-.08-.22-.12-.02-.02-.04-.04-.05-.06-.01-.01-.01-.02-.02-.03a.21.21 0 00-.04-.06c-.03-.05-.06-.11-.08-.16 0 0 0-.01-.01-.01v-.01c0-.01 0-.02-.01-.02-.01-.03-.02-.06-.03-.1l-.06-.21c-.02-.07-.03-.14-.04-.21 0-.02-.01-.04-.01-.06v-.02c-.01-.05-.01-.1-.02-.15-.01-.08-.01-.17-.01-.25 0-.05-.01-.08 0-.12zm4.08 4.4H4.26v-2.66l.12.12c.05.04.12.07.18.1.24.12.49.23.75.33.33.14.66.26 1 .39.11.04.23.08.34.12.01 0 .02.01.03.01.55.2 1.11.38 1.67.53v1.06zm2.07-2.36c-.03.06-.06.11-.1.16v.01c-.02.02-.03.04-.05.06-.04.04-.08.09-.12.13-.09.1-.19.19-.29.27-.01.01-.03.02-.04.03 0 0-.01 0-.01.01-.03.02-.06.04-.08.06-.06.04-.13.09-.2.12-.03.01-.05.03-.08.04-.01 0-.02.01-.03.01H9.4c-.01 0-.02.01-.02.01-.06.02-.11.03-.17.05h-.16c-.13-.02-.25-.05-.38-.08-.02-.01-.03-.01-.05-.01-.17-.04-.33-.09-.5-.14-.36-.11-.71-.22-1.07-.34l.21-.51c.16-.37.31-.75.47-1.12 0-.01.01-.01.01-.02.26.12.52.25.78.37.01 0 .01.01.02.01.01.01.02.01.03.01.09.04.17.08.26.12.12.06.24.03.32-.08.34-.49.68-.98 1.03-1.47.08-.12.16-.23.25-.35.05-.08.11-.14.12-.24.01-.14.01-.28.03-.42v-.05c0-.03.01-.05.01-.08.01-.07.03-.14.04-.21.01-.06.03-.12.05-.18.02-.06.03-.12.06-.18v-.01c0-.01.01-.01.01-.01.01-.02.01-.03.02-.05.01-.02.03-.05.04-.07l.06-.09c.01-.01.01-.02.02-.03.01-.01.02-.03.03-.03.04-.05.09-.09.14-.13.01-.01.04-.03.05-.04.03-.02.07-.04.11-.06-.02.01 0 0 .01 0 0 0 .02-.01.03-.01h.01c.02-.01.04-.01.06-.02l.1-.03c.02 0 .03-.01.05-.01h.03a.67.67 0 01.2 0c.01 0 .06.01.07.01.04.01.07.01.11.02l.11.03c.01 0 .02.01.04.01 0 0 .02.01.03.01l.06.03c.01 0 .02.02.03.02.01.01.02.02.03.04 0 0 .01 0 .02.02-.01 0-.01-.01-.02-.02 0 0 0 .01.02.02.01.01.01.02.02.03 0 0 .01.02.01.03 0-.01 0 0 .01.02v.01s-.01-.01-.01-.02c0 .01.01.02.01.02 0 .01.01.03.01.04.01.02.01.04.02.07 0 .01 0 .02.01.03 0 .05.01.09.01.14 0 .05 0 .09-.01.14v.01c0 .02-.01.04-.01.06-.01.05-.02.1-.04.15-.02.04-.04.08-.06.13-.12.25-.24.5-.37.75-.34.7-.69 1.41-1.04 2.11-.12.22-.23.46-.36.69zm7.4-.6zm0 .02c0 .01 0 .01 0 0zm-4.77-5.1c0-.01 0-.01 0 0-.01-.01-.01-.01-.01-.02l-.01-.01c-.01-.01-.02-.03-.03-.04a.555.555 0 00-.06-.08c-.04-.06-.07-.12-.11-.18a.467.467 0 01-.05-.1c-.01-.03-.03-.05-.04-.08-.01-.03-.03-.06-.04-.09v-.01c-.01-.02-.01-.03-.02-.05-.03-.07-.05-.13-.07-.2a6.112 6.112 0 01-.16-.61c-.01-.07-.03-.14-.04-.21 0-.03-.01-.06-.01-.09v-.05c-.03-.24-.05-.48-.05-.71v-.47c0-.15.01-.3.02-.45.27-.19.54-.37.82-.56.07-.05.15-.1.22-.15.05-.03.11-.07.15-.12 0-.01.01-.01.01-.02 0 0 0 .01.01.01.05.09.12.17.2.24.17.16.36.3.57.41.16.08.32.15.49.17.19.03.38.04.57.04.3.01.61.01.91 0h.06c.02 0 .04.01.06.01.01 0 .02.01.03.01.02.01.04.02.05.03l.02.02.03.15c0 .01 0 .03.01.04v.01c.01.04.01.08.01.12v.03c.01.15.02.31.02.46.01.3-.01.6-.05.9v.03c-.01.03-.01.07-.02.1-.01.07-.02.14-.04.21-.03.14-.06.27-.1.41-.02.07-.04.13-.07.2l-.03.09c-.01.01-.01.03-.02.04 0 .01-.01.02-.01.02v-.01.01c-.01.02-.02.05-.03.07-.05.1-.1.19-.15.29l-.11.17-.03.03c-.02.03-.05.05-.07.08-.04.05-.09.1-.14.14a.5.5 0 00-.08.07c-.01.01-.03.02-.04.03-.06.04-.11.08-.17.11-.03.02-.06.03-.09.05-.01.01-.03.01-.04.02h-.01c-.14.05-.29.1-.44.12h-.01c-.02 0-.04.01-.06.01-.04 0-.08.01-.13.01h-.26c-.04 0-.08-.01-.12-.01-.02 0-.04 0-.06-.01h-.02c-.08-.01-.15-.03-.23-.05-.07-.02-.14-.04-.21-.07h-.01c-.01-.01-.02-.01-.04-.02-.01-.01-.03-.01-.04-.02a.076.076 0 00-.05-.02h-.01c-.06-.03-.12-.07-.18-.11-.01-.01-.03-.02-.04-.03l-.01-.01a.435.435 0 00-.07-.06c-.05-.04-.1-.09-.15-.14-.02-.02-.04-.05-.06-.07a.138.138 0 01-.03-.04c-.02.02-.03.01-.03.01zm4.01-2.2c0-.12.01-.24 0-.36.07.01.13.03.2.05l.09.03.06.03c.06.03.12.06.17.1.01.01.02.01.02.02l.01.01c.03.02.05.04.07.07l.07.07.01.01c.01.01.01.02.02.03.04.05.06.1.09.16.01.01.01.03.02.04l.03.09c0 .01 0 .02.01.03v.02c0 .03 0 .06.01.1v.11c-.01.06-.03.11-.05.17-.01.01-.01.02-.01.03-.01.02-.02.05-.04.07s-.03.05-.04.07v.01l-.03.03-.12.12-.03.03c-.03.02-.06.04-.08.06-.05.03-.1.06-.15.08 0 0-.02.01-.03.01h-.01l-.1.03c-.06.02-.12.03-.18.04h-.05c-.04 0-.08.01-.12.01h-.03c.11-.42.17-.9.19-1.37zm-5.68-.69c0-.01 0-.01 0 0-.01-.01-.01-.02-.01-.02-.01-.01-.01-.03-.02-.04-.03-.09-.07-.17-.09-.26l-.09-.32c-.01-.06-.03-.12-.04-.18-.01-.03-.01-.06-.02-.1 0-.01 0-.03-.01-.05v-.02.01c-.01-.03-.01-.06-.01-.09 0-.04-.01-.07-.01-.11-.01-.07-.01-.14-.01-.21 0-.15 0-.31.02-.46 0-.02 0-.04.01-.06v-.06c0-.02.01-.04.01-.07.01-.08.03-.17.05-.25.04-.17.1-.34.16-.5 0-.01.01-.02.01-.03.01-.02.01-.03.02-.05.02-.04.04-.09.06-.13.05-.09.09-.18.15-.27.05-.09.11-.17.17-.26.03-.04.06-.08.08-.12 0 0 .02-.02.02-.03.01-.02.03-.03.04-.05.11-.13.23-.26.36-.38.03-.03.06-.05.09-.08.01-.01.03-.02.04-.03l.01-.01h.01c.06-.05.13-.09.19-.13.12-.08.25-.14.38-.2h.02c.01 0 .02-.01.03-.01.03-.01.07-.03.1-.04.06-.02.13-.04.19-.06.12-.03.24-.06.37-.08.03-.01.06-.01.09-.02h.04c.06-.01.11-.01.17-.02.21-.02.41-.02.62-.03h.32c.05 0 .11.01.16.01.03 0 .05 0 .08.01h.04c.12.02.24.04.36.07l.18.06c.03.01.06.02.1.04.01 0 .02.01.03.01h.01c.01 0 .01.01.02.01.13.06.26.13.38.2l.09.06c.02.01.03.02.05.03.01.01.02.01.03.02l.01.01c.01.01.02.01.02.02.02.01.03.02.05.04.03.03.07.06.1.09.26.24.48.49.66.78.08.12.15.26.21.39.03.01.04.02.05.04.01.03.03.07.04.1.03.07.05.13.07.2.04.14.08.28.11.42.03.13.06.27.07.4v.03c0 .02 0 .03.01.05 0 .04.01.07.01.11.01.07.01.14.02.2.01.13.01.27.02.4 0 .24-.01.48-.02.71l-.03.3c-.01.04-.01.08-.01.12v.01c-.14-.09-.29-.17-.45-.22a3.88 3.88 0 00-.33-.07c-.01-.15-.03-.3-.07-.45-.07-.28-.38-.44-.65-.43-.33.01-.67.01-1 0-.1 0-.2-.01-.31-.02-.02 0-.04 0-.06-.01h-.02.01c-.04-.01-.08-.01-.11-.02l-.12-.03c-.01 0-.01-.01-.02-.01-.03-.01-.06-.03-.08-.04-.11-.06-.21-.12-.31-.19-.01-.01-.03-.02-.04-.03 0 0-.01 0-.01-.01l-.01-.01c-.01-.01-.03-.02-.04-.03-.05-.04-.09-.08-.13-.12-.04 0-.06-.02-.07-.03 0-.01-.01-.01-.01-.02-.01-.02-.02-.03-.03-.05 0 0 0-.01-.01-.01v-.01c-.07-.19-.11-.39-.16-.59l-.06-.31c0-.03-.01-.06-.02-.09a.241.241 0 00-.1-.1h-.02s-.01 0-.01-.01c-.01 0-.02-.01-.03-.01h-.04c-.02 0-.04 0-.06.01-.02.01-.04.01-.05.02-.06.03-.09.09-.1.15 0 .01-.01.03-.01.05-.04.3-.08.6-.11.9-.38.26-.76.51-1.13.77-.08.06-.11.12-.12.21v.04c-.01.05-.01.11-.01.16-.01.13-.01.27-.02.4-.19 0-.35.06-.5.13-.01-.01-.01-.03-.02-.04zm-.24.92c0 .01-.01.01-.01.02 0-.01 0-.02.01-.02zm.89 1.16h-.04c-.03-.01-.07-.01-.1-.02a.845.845 0 01-.17-.05c-.01 0-.01 0-.02-.01h-.01c-.03-.01-.06-.03-.09-.04l-.15-.09-.01-.01s-.01 0-.01-.01h-.01a.234.234 0 01-.07-.07l-.06-.06-.01-.01s0-.01-.01-.01c-.03-.05-.07-.1-.09-.15-.01-.01-.01-.02-.02-.03-.01-.03-.02-.05-.03-.08-.01-.03-.01-.05-.02-.08 0-.01 0-.03-.01-.04v-.2.02c0-.01.01-.03.01-.03.01-.03.01-.06.02-.09s.02-.05.03-.07c0-.01 0-.01.01-.01 0-.01.01-.01.01-.02l.09-.15v-.01l.02-.02.06-.06.06-.06c.01-.01.02-.01.03-.02h.01s.01 0 .01-.01c.04-.03.09-.06.14-.08.03-.01.05-.03.08-.04.01 0 .01-.01.02-.01h.01c.01 0 .02-.01.03-.01.06-.02.12-.04.17-.05.02.51.08 1.03.21 1.53l.06.2c-.08-.05-.11-.05-.15-.05zm3.65 2.98c0 .02 0 .03-.01.05v.03a4.57 4.57 0 01-.21.84c-.01.04-.03.08-.05.12a1.71 1.71 0 01-.16.3c-.02.04-.05.07-.07.11l-.01.01-.01.01s0-.01.01-.01l-.02.02-.01.01-.03.03c-.03.03-.05.06-.08.09l-.04.04c-.01.01-.02.01-.03.02l-.09.06-.06.03c-.01 0-.02.01-.03.01-.03.01-.07.02-.11.03-.02.01-.05.01-.07.02h-.02c-.04 0-.09.01-.13 0h-.05c-.01 0-.03 0-.04-.01l-.12-.03c-.01 0-.02-.01-.03-.01 0 0 .01 0 .01.01-.02-.01-.04-.02-.05-.02-.04-.02-.07-.04-.1-.06l-.01-.01s-.01 0-.01-.01c-.01-.01-.02-.01-.01-.01-.01-.01-.02-.02-.03-.02l-.09-.09-.04-.04c-.01-.01-.01-.01-.01-.02l-.01-.01c-.02-.03-.01-.01 0 0a.351.351 0 00-.07-.09c-.02-.04-.05-.07-.07-.11l-.06-.12c-.01-.02-.02-.04-.03-.05-.01-.01-.01-.02-.01-.03v-.01c0-.01-.01-.02-.01-.03-.01-.02-.01-.04-.02-.05-.02-.04-.03-.09-.05-.13-.03-.08-.05-.15-.07-.23-.03-.13-.06-.26-.08-.39-.01-.03-.01-.06-.01-.09v-.01c0-.01 0-.03-.01-.05.01-.03.01-.05.02-.08.04-.15.07-.3.11-.45l.18-.72c.49.18 1.05.19 1.55.04.04-.01.07-.02.11-.04l.15.49c.05.16.1.32.14.48.01.05.03.1.04.15.01 0 .01.02.01.03zm.41-.3l-.06-.2c-.09-.29-.17-.58-.26-.87.4-.26.7-.64.89-1.09.01-.02.02-.04.03-.07.16.01.32.01.47-.02.42-.07.81-.31 1.04-.66.11.15.25.29.4.39.04.03.09.05.13.07h.01c-.01-.01 0-.01.02.01h-.02s.01.01.03.02l-.01-.01v.01c0 .01.01.01.01.02l.03.06c0 .01.01.02.01.03.02.06.04.11.06.17.04.14.07.29.1.44.01.08.03.17.04.25.01.04.01.08.02.12v.02c0 .02.01.04.01.06.04.32.07.64.09.96.01.09.01.19.02.28h-2.59c-.15.02-.31.01-.47.01zm2.68-2.41c.01 0 .01 0 0 0 .01 0 .01 0 0 0zm2.77 3.57c0 .04-.01.08-.01.12v.03c0 .02-.01.04-.01.06-.01.04-.02.08-.03.11 0 .02-.01.03-.02.05 0 .01-.01.02-.01.02-.01.02 0 .01 0 0-.01.05-.06.1-.09.14-.05.07-.09.14-.14.22-.03.04-.06.09-.09.13-.02.02-.03.05-.05.07l-.01.01-.01.01c-.08.1-.17.19-.26.27-.01.01-.02.01-.02.02-.01 0-.01.01-.01.01-.03.02-.05.04-.08.05-.03.02-.06.03-.09.05-.01.01-.03.01-.04.02h-.02l-.2.06c-.01 0-.03.01-.05.01h-.14c-.15 0-.3 0-.45.01-.22 0-.44.01-.65.02-.04-.23-.08-.47-.11-.7l-.24-1.46c0-.01 0-.03-.01-.04h.62c.19.19.38.39.58.58.09.09.24.09.33 0 .08-.09.09-.24 0-.33-.19-.19-.38-.4-.58-.59-.02-.42-.06-.85-.11-1.27-.04-.34-.09-.69-.17-1.03-.06-.23-.14-.53-.36-.66-.02-.01-.09-.05-.06-.03h.01c-.01 0-.02-.01-.02-.01-.01-.01-.03-.01-.04-.02-.03-.02-.05-.03-.08-.05h-.01l-.02-.02a.8.8 0 01-.13-.13l-.03-.03c-.02-.01-.04-.05-.05-.07-.06-.09-.12-.18-.16-.28v-.11c-.01-.23-.08-.44-.19-.62.04-.19.06-.38.08-.57.02-.17.03-.34.04-.51.25-.06.5-.12.75-.19l.1.03c.05.01.1.03.16.05.03.01.05.02.08.03.02.01.03.01.05.02.05.02.09.06.14.08-.01-.01-.01-.01 0 0l.03.03c.01.01.01.02.01.02v.01l.03.09c.14.42.25.85.36 1.27.05.18.09.36.14.53.01.05.02.1.04.14.08.23.17.45.26.68.16.42.31.84.46 1.26.15.41.3.83.43 1.25.05.15.09.29.13.44l.03.12v.03c.01.09.01.17.01.26-.01.13-.01.22-.02.31z"/><path class="st0" d="M13.42 11.09c.18.23.44.43.72.53.42.15.86-.04 1.21-.29.1-.07.21-.15.3-.24l.02-.02c.07-.09.07-.23-.02-.31-.07-.07-.17-.08-.26-.05-.02.01-.05.03-.07.05-.02.01-.03.03-.05.04-.02.02-.04.03-.06.05l-.01.01h-.01c-.01 0-.01.01-.02.01l-.2.14c-.04.02-.08.05-.12.07l-.06.03c-.01 0-.02.01-.03.01-.04.02-.08.03-.12.04-.02.01-.04.01-.07.02-.01 0-.02 0-.03.01h-.15c-.03-.01-.05-.01-.08-.02-.02-.01-.04-.01-.06-.02 0 0-.01 0-.02-.01h-.02l-.12-.06c-.03-.02-.07-.04-.1-.07 0 0-.01 0-.01-.01-.02-.01-.03-.03-.05-.04-.07-.06-.15-.14-.21-.21a.21.21 0 00-.13-.07.249.249 0 00-.2.07c-.08.08-.08.18-.04.27.04.03.05.05.07.07z"/></svg>