<svg version="1.1" id="Layer_1" xmlns="http://www.w3.org/2000/svg" x="0" y="0" viewBox="0 0 24 24" xml:space="preserve"><style>.st0{fill:#b60e3f}</style><path class="st0" d="M7.55 11.22H5.47c-.14 0-.27.12-.27.27v2.08c0 .14.12.27.27.27h2.08c.06 0 .12-.02.17-.06.05-.04.09-.11.1-.18v-2.11c0-.15-.12-.27-.27-.27zm-.27 2.08H5.74v-1.55h1.55v1.55zm.27 1.49H5.47c-.14 0-.27.12-.27.27v2.08c0 .14.12.27.27.27h2.08c.06 0 .12-.02.17-.06.05-.04.09-.11.1-.18v-2.11c0-.15-.12-.27-.27-.27zm-.27 2.08H5.74v-1.55h1.55v1.55zm11.27-5.65h-2.08c-.14 0-.27.12-.27.27v2.08c0 .14.12.27.27.27h2.08c.06 0 .12-.02.17-.06.05-.04.09-.11.1-.18v-2.11c0-.15-.12-.27-.27-.27zm-.26 2.08h-1.55v-1.55h1.55v1.55zm.26 1.49h-2.08c-.14 0-.27.12-.27.27v2.08c0 .14.12.27.27.27h2.08c.06 0 .12-.02.17-.06.05-.04.09-.11.1-.18v-2.11c0-.15-.12-.27-.27-.27zm-.26 2.08h-1.55v-1.55h1.55v1.55z"/><path class="st0" d="M21.64 18.5h-1.19v-8.47c.23 0 .46 0 .68-.01a.44.44 0 00.37-.67c-.03-.05-.06-.1-.09-.14-.15-.22-.29-.45-.44-.67l-1.23-1.89c-.14-.22-.28-.43-.42-.65-.03-.04-.05-.08-.08-.12a.467.467 0 00-.39-.22c-.21-.01-.43 0-.64 0h-5.25c-.05-.05-.09-.1-.14-.14-.2-.21-.4-.43-.61-.63l-.01-.01a.35.35 0 00-.5 0c-.16.17-.32.35-.49.52-.08.09-.17.18-.25.27H5.08c-.26.01-.37.19-.49.38L3.52 7.69 2.5 9.25c-.03.04-.05.08-.07.12-.1.18-.07.4.08.54.08.08.19.11.3.12.15.01.3 0 .45 0h.32v8.47H2.36c-.19 0-.37.16-.36.36.01.19.16.36.36.36h19.27c.19 0 .37-.16.36-.36 0-.19-.15-.36-.35-.36zM18.63 6.39h.1c.33.5.65 1.01.98 1.51.31.47.61.95.92 1.42H16.5c-.31-.33-.63-.65-.95-.98-.49-.5-.97-1.01-1.46-1.51-.14-.15-.28-.29-.43-.44h4.97zM3.61 8.86c.4-.62.8-1.24 1.21-1.86.13-.21.27-.41.4-.62h5.09c-.08.09-.16.18-.25.26l-1.41 1.5c-.35.4-.71.79-1.07 1.17H4.23c-.3 0-.61-.01-.91-.01.09-.14.19-.29.29-.44zm9.69 5.54h.14c.07.01.14.03.21.06.01 0 .02.01.03.01.01 0 .02.01.03.01.04.02.08.04.12.07.02.01.05.03.07.05h-.01s.01.01.03.02c.01 0 .01.01.02.01 0 0-.01 0-.01-.01h.01c.02.02.04.03.06.05l.09.09.02.02c.01.01.02.02.02.03.02.03.05.07.07.11l.03.06s0 .01.01.02v.01c0 .01.01.03.01.03.01.02.02.04.02.07.01.04.02.09.03.14 0 .01 0 .02.01.04v3.08h-1.92V14.4h.91zm-1.61 3.98h-2v-3.09c0-.01.01-.03.01-.04.01-.04.02-.08.03-.13.01-.02.01-.04.02-.07 0-.01.01-.01.01-.02.04-.07.07-.15.12-.21 0 0 0-.01.01-.01 0 0 .01-.01.01-.02.01-.01.01-.01.01-.02.03-.03.06-.07.09-.1l.05-.05.01-.01.1-.07c.04-.02.08-.05.12-.06.01 0 .01-.01.02-.01s.02-.01.03-.01c.04-.01.08-.03.12-.04.02-.01.05-.01.07-.01h.02c.05 0 .1-.01.15-.01h.97v3.98zm3.35.12v-3.19a1.77 1.77 0 00-.57-1.18c-.32-.29-.74-.45-1.17-.45h-2.47c-.23 0-.47.02-.69.1-.41.16-.77.45-.96.85-.13.26-.19.54-.19.84v3.03h-4.7v-8.47H6.9c-.02.02-.04.04-.06.07l-.01.01c-.13.14-.15.37 0 .5.14.13.37.15.5 0 .08-.08.16-.17.24-.25.08-.09.17-.18.25-.27.39-.41.77-.83 1.16-1.24l1.41-1.5.89-.95c.11-.12.22-.24.33-.35.11-.12.23-.24.34-.36h.02c.08.08.15.16.23.24.15.16.31.32.46.48.25.26.5.51.75.77.49.5.97 1.01 1.46 1.51.42.43.84.87 1.25 1.3.12.13.25.26.37.39l.24.24.01.01c.13.13.38.14.5 0a.36.36 0 000-.5l-.07-.07h2.55v8.47h-4.68z"/><path class="st0" d="M12.8 7.78c-.87-.32-1.9-.04-2.49.68-.3.37-.48.81-.52 1.29-.02.2 0 .41.04.61a2.25 2.25 0 002.67 1.76c.87-.17 1.59-.9 1.75-1.77 0-.02.01-.04.01-.07.02-.12.03-.23.03-.35v-.02c0-.96-.6-1.8-1.49-2.13zm.83 1.45c.03.05.04.1.05.14.03.1.05.19.07.29v.02c0 .02 0 .04.01.06 0 .05.01.1.01.16 0 .05 0 .1-.01.15 0 .02 0 .05-.01.07v.04c-.01.06-.02.13-.04.19-.01.03-.02.06-.03.1-.01.04-.03.09-.05.13 0 .01-.01.01-.01.02-.01.02-.02.05-.03.07-.04.09-.09.17-.15.25 0 0-.01.02-.02.03v.01c-.01.01-.02.03-.02.03-.03.04-.07.08-.1.12-.03.03-.06.06-.1.09-.02.01-.03.03-.05.04l-.02.02-.02.02c-.01.01-.02.02-.03.02-.02.01-.04.03-.06.04-.04.03-.08.05-.13.08l-.12.06c-.01 0-.03.02-.04.02 0 0 .01 0 .01-.01-.02.01-.05.02-.07.02-.09.03-.18.06-.28.08-.02 0-.05.01-.07.01h-.03c-.05.01-.1.01-.15.01-.1 0-.2 0-.3-.01h-.02c-.02 0-.05-.01-.07-.01-.05-.01-.1-.02-.16-.04-.04-.01-.09-.03-.13-.04-.02-.01-.04-.02-.06-.02-.01 0-.02-.01-.02-.01-.09-.04-.17-.09-.26-.14a.21.21 0 01-.06-.04s-.02-.01-.03-.02c-.01-.01-.03-.02-.04-.03-.02-.02-.04-.03-.06-.05-.07-.07-.14-.14-.2-.21 0 0-.02-.02-.02-.03-.01-.01-.02-.02-.02-.03-.03-.04-.05-.08-.08-.12-.02-.04-.05-.08-.07-.12l-.03-.06c0-.01-.02-.03-.02-.04v.01a.615.615 0 01-.07-.23c0-.02-.01-.03-.01-.05l-.03-.14v-.04c0-.03-.01-.05-.01-.08-.01-.1-.01-.2 0-.3 0-.02 0-.04.01-.06v-.03l.03-.15c.02-.09.04-.19.08-.27 0 0 0-.01.01-.01 0-.01.01-.01.01-.02l.03-.06c.02-.04.05-.09.07-.13.02-.04.05-.08.08-.12.01-.01.01-.02.02-.03 0 0 .01-.01.01-.02.01-.01.02-.03.02-.03.06-.07.13-.14.2-.2.03-.02.05-.05.08-.07.01-.01.04-.03.04-.03.02-.01.04-.03.06-.04.08-.05.16-.1.25-.14.01 0 .01-.01.02-.01h.01c.02-.01.04-.01.06-.02.05-.02.1-.03.15-.05l.14-.03c.02 0 .05-.01.07-.01h.03c.1-.01.21-.02.31-.01.05 0 .1.01.14.01h.02c.03 0 .05.01.08.01.1.02.19.05.28.08.02.01.05.01.07.02.01 0 .01.01.02.01.04.02.09.04.13.07.04.02.08.05.12.07.02.01.04.02.06.04.01.01.02.01.03.02.01.01.03.03.04.03.02.02.04.03.06.05.04.03.07.07.1.1s.06.07.09.1l.03.03v.01c.01.01.02.02.02.03.06.08.11.16.15.25l.03.06c-.01 0 0 .01 0 .02z"/><path class="st0" d="M12.56 9.82h-.28v-.77c0-.14-.12-.27-.27-.27-.15.01-.27.12-.27.27v1.05c0 .13.09.24.21.26.02 0 .04.01.05.01h.55c.02 0 .03 0 .05-.01.12-.02.22-.14.22-.26 0-.15-.11-.28-.26-.28z"/></svg>