<svg version="1.1" id="Layer_1" xmlns="http://www.w3.org/2000/svg" x="0" y="0" viewBox="0 0 34 74" xml:space="preserve"><style/><path d="M11.19 14.02s-.42-1.53-.56-1.8c-.14-.28-1.25-1.25-1.39-1.8-.13-.56-.55-.84-.41-1.26.14-.41.28.14.14-.41-.14-.56-.14-.56-.28-.97-.14-.42-.28-.42-.14-.7.14-.28.28-.28.56-.55.28-.28.28-.42.42-.42h.32l.24-.56.42-.42c.14-.14.57 0 .57 0s.25-.13.11-.34c-.14-.21-.42-.21-.42-.21s.36-.32.46-.3c.1.02.79-.39.79-.25s.14.42.28.42h.42c.14 0 .14-.28.28-.28s.42.14.42.14h.28l.28-.14.56.28.42.28.42.42c.14.14.56.42.56.42h.28l.42.56s-.28.32 0 .51l.28.19.42-.14.28.14v1.1l-.42.12.14.28-.28.56-.26.12-.06.43V10c0 .28-.56 1.11-.56 1.11s-.14.56-.42.56-.69.42-.69.42l-.14.28v1.25s.14.4.35.55 1.04.56 1.74.84c.69.28 1.94.56 2.22.69.28.14.69.28 1.11 1.11s1.11 3.05 1.11 3.05.42 1.53.56 1.94.97 2.36.97 2.36.83.97 1.25 1.67c.42.69 2.78 4.72 2.78 4.72l1.11.97 1.67 1.11.28.42.14.28 1.53 1.94s.14.28.14.56-.65 0-.65 0l-.04.28s.14.28.14.42-.28.28-.28.28l-.28-.28-.28.14-.07.14-1.32-1.11h-.28s.28.56.28.69.14.56.14.56l-.2.21L28 35.7l-.28-.42-.83-.97s-.83-1.11-.97-1.25c-.14-.14-.14-.56-.28-.69L23 29.73s-.97-1.11-1.39-1.8c-.42-.69-.97-2.08-.97-2.22 0-.14-1.25-2.22-1.39-2.22s-.14.56-.14.56.28.83.28.97.14 2.08.42 2.36l1.11 1.11.42 1.53.83 3.19.83 2.78s.28.28 0 .83c-.28.56-.56.69-.56.69s-.28 1.53-.42 2.22c-.14.69-.56 1.25-.56 1.53s.14 1.11 0 1.94c-.14.83-1.11 3.19-1.53 3.89-.42.69-.69 1.39-.69 1.67s.14.28.14.97-.56 1.11-.56 1.39c0 .28.14.83 0 1.11-.14.28-.28.42-.28.42s.14.83-.14 1.39c-.28.56-.56.28-.83.83-.28.56-.83 5.41-.83 5.41l-.83 4.16s-.28.56-.14 1.11c.14.56 1.25 1.67 1.25 1.67l1.11.83s.56.56.42.97c-.14.42-.83.83-1.25.83s-.97-.28-1.39-.69-.42-.97-.83-1.11c-.42-.14-1.25.14-1.39-.28-.14-.42-.42-.69-.28-1.11.14-.42.42-.69.42-1.25s-.56-9.99-.56-9.99h-.42s-.14.97-.28 1.53-1.8 5.55-1.94 5.83c-.14.28-.42 3.19-.42 3.19s0 2.78-.14 3.05c-.14.28-.14.83-.42.97s-1.23-.15-1.17-.15c.07-.02-.7.16-.7.16s-.62-.32-.62-.73-.42-1.53-.14-2.08c.28-.56 1.11-1.8 1.11-2.22s.42-1.67.42-1.94-.14-7.08 0-8.05c.14-.97 1.39-3.19 1.39-3.33s-.42-.83-.69-1.11c-.28-.29-.98-.98-1.25-.98-.28 0-3.19-.14-3.61-.14-.42 0-1.8-.28-1.8-.69 0-.42.69-3.89.56-3.89-.14 0 1.25-3.05 1.25-3.05s-2.08-.83-2.22-1.53c-.14-.69.14-4.03.42-4.86s1.11-2.5 1.25-3.19c.14-.69.56-2.78.83-3.61.28-.83 1.11-2.08 1.11-2.22s.56-2.36.56-3.61.28-4.16.56-4.86c.28-.69 1.25-1.25 1.25-1.25l2.91-1.53.12-1.11z" fill="#1d346b"/></svg>