<svg version="1.1" id="Layer_1" xmlns="http://www.w3.org/2000/svg" x="0" y="0" viewBox="0 0 24 24" xml:space="preserve"><style>.st0{fill:#b60e3f}</style><path class="st0" d="M22 12.16v-.01c0-.18-.15-.34-.34-.34h-4.65l-1.54-1.36c-.88-.78-1.76-1.55-2.63-2.32-.17-.15-.33-.3-.5-.44V5.53h2.98c.18 0 .34-.15.34-.34V2.6c0-.18-.15-.34-.34-.34H12c-.08 0-.15.03-.21.08-.03.02-.05.04-.07.07-.03.04-.05.1-.06.15v5.1c-.14.11-.27.23-.4.34l-1.2 1.02c-.49.41-.97.83-1.46 1.24-.41.38-.83.74-1.25 1.09-.17.15-.35.29-.51.44h-4.5c-.18 0-.34.15-.34.33v8.14c0 .37-.01.75 0 1.12v.02c0 .18.15.34.34.34h19.32c.08 0 .15-.03.21-.08.07-.05.12-.13.12-.22V13.3c.01-.39.02-.76.01-1.14zm-9.66-9.22h2.65v1.92h-2.65V2.94zM6.63 20.25c0 .27-.01.54 0 .81H2.68v-7.8c0-.27.01-.54.01-.81H4.5c.71 0 1.43.01 2.14 0v7.8zm5.03.77H9.35v-4.7h2.31v4.7zm2.99 0h-2.31v-4.7h2.31v4.7zm1.9-.76c0 .27-.01.53 0 .8h-1.23v-5.07c0-.18-.15-.34-.34-.34H9.02c-.18 0-.34.15-.34.34v5.07H7.3v-7.8c0-.33.01-.66 0-.99.04-.03.08-.07.12-.1.28-.23.55-.47.83-.7.8-.68 1.6-1.36 2.4-2.05.45-.38.9-.75 1.35-1.14.36.31.71.63 1.07.94l2.39 2.11c.3.26.59.52.89.78.06.05.13.13.21.19v7.96zm4.77 0c0 .27-.01.53 0 .8h-4.1v-7.78c0-.27.01-.53 0-.8h4.09v7.78z"/><path class="st0" d="M12.62 10.16c-.68-.25-1.49-.02-1.95.53-.48.59-.57 1.42-.17 2.08.39.65 1.16.98 1.91.83.82-.16 1.41-.92 1.42-1.74v-.02c-.01-.76-.49-1.42-1.21-1.68zm-.42 2.8s.01 0 0 0c.01 0 .01 0 0 0zm.94-.93V12c.01.02.01.03 0 .03zm.01-.08v.04c-.01.02-.04.2-.05.22-.01.02-.01.04-.02.06 0 0-.01.01-.01.02-.01.01-.01.03-.02.04-.03.07-.07.13-.11.19l-.01.01s0 .01-.01.01v.01c-.02.02-.04.05-.07.07l-.07.07c-.01.01-.02.02-.04.03-.01 0-.03.02-.04.03-.01.01-.03.02-.04.03-.03.02-.06.04-.08.05-.03.02-.06.03-.09.04h-.02c-.01 0-.02.01-.02.01-.06.02-.13.04-.19.06-.01 0-.03 0-.04.01-.02-.01-.11.01-.13.01-.07 0-.13 0-.2-.01h-.04.02c-.01 0-.03 0-.03-.01l-.12-.03-.09-.03c-.01 0-.01 0-.02-.01 0 0-.01 0-.01-.01-.06-.03-.12-.06-.18-.1-.01-.01-.03-.02-.04-.03h-.01l-.01-.01-.01-.01c-.01-.01-.03-.02-.04-.03-.05-.05-.1-.1-.14-.15l-.01-.01-.01-.01c-.02-.03-.04-.05-.05-.08-.02-.03-.04-.06-.05-.1-.01-.01-.01-.03-.02-.04l-.03-.01c-.02-.05-.03-.11-.05-.16-.01-.03-.01-.06-.02-.09v-.02c0-.02-.01-.06-.01-.06a.739.739 0 010-.21v-.07c0-.03.02-.06.02-.08.01-.06.04-.12.06-.18.01-.01.01-.03.02-.04.02-.04.04-.07.06-.11.02-.03.04-.06.05-.08l.01-.01.01-.01c.04-.05.09-.1.14-.15.02-.02.04-.03.05-.05.01-.01.04-.03.05-.04.06-.04.13-.07.19-.11 0 0 .01 0 .01-.01.01 0 .02-.01.02-.01l.09-.03c.03-.01.06-.02.1-.02.02 0 .03-.01.05-.01h.01c.07-.01.14-.01.21-.01.03 0 .07 0 .1.01h.01c.01 0 .03.01.04.01.08.02.15.04.23.07h.01c.01.01.02.01.03.02.03.02.06.03.1.05.04.02.07.04.1.07l.01.01.02.02c.06.05.11.1.16.16l.02.02s0 .01.01.01c.02.03.04.07.07.1.02.03.04.06.05.1.01.01.02.03.02.04v.01c.03.07.05.14.06.22v.06c0 .04.01.09.01.13.04.05.03.09.03.12zm-7.49 1.54H3.5c-.18 0-.34.15-.34.34v2.16c0 .18.15.34.34.34h2.16c.08 0 .15-.03.21-.08.07-.05.12-.13.12-.22v-2.19a.338.338 0 00-.33-.35zm-.34 2.16H3.83v-1.49h1.49v1.49zm.34 1.87H3.5c-.18 0-.34.15-.34.34v2.16c0 .18.15.34.34.34h2.16c.08 0 .15-.03.21-.08.07-.05.12-.13.12-.22v-2.19c.01-.2-.15-.35-.33-.35zm-.34 2.16H3.83v-1.49h1.49v1.49zm12.8-3.35h2.16c.08 0 .15-.03.21-.08.07-.05.12-.13.12-.22v-2.19c0-.18-.15-.34-.34-.34h-2.16c-.18 0-.34.15-.34.34V16c.01.17.16.33.35.33zm.33-2.17h1.49v1.49h-1.49v-1.49zm-.33 6.19h2.16c.08 0 .15-.03.21-.08.07-.05.12-.13.12-.22v-2.19c0-.18-.15-.34-.34-.34h-2.16c-.18 0-.34.15-.34.34v2.16c.01.18.16.33.35.33zm.33-2.16h1.49v1.49h-1.49v-1.49z"/></svg>