<svg width="241" height="20" fill="none" xmlns="http://www.w3.org/2000/svg"><g clip-path="url(#clip0_152_366)" fill="#fff"><path d="M14.694 14.61c0 1.057.39 1.612 1.12 1.612 1.313 0 2.335-1.16 3.016-3.426L21.36.353h5.402l-2.725 13.199a6.466 6.466 0 00-.146 1.36c0 .856.535 1.31 1.557 1.31 1.41 0 2.433-1.16 3.017-3.426h1.557c-1.557 4.735-4.088 7.154-7.494 7.154-2.238 0-3.454-1.21-3.698-3.678-1.46 2.468-3.308 3.678-5.546 3.678-2.239 0-3.455-1.21-3.699-3.678-1.46 2.468-3.308 3.678-5.546 3.678-1.12 0-2.093-.353-2.871-1.109C.389 18.085 0 16.927 0 15.315c0-.756.097-1.562.292-2.52L2.822.354h5.401L5.547 13.552c-.097.403-.097.755-.097 1.108 0 1.058.389 1.612 1.119 1.612 1.314 0 2.335-1.159 3.016-3.426L12.115.403h5.402L14.84 13.602c-.098.252-.146.655-.146 1.008zM39.85 7.506a8.97 8.97 0 011.557-.15c1.363 0 2.287.301 2.823.956.535.605.778 1.512.778 2.67 0 .303-.049.605-.097.907l-.146.907c-.146.907-.243 1.562-.243 1.965 0 .957.486 1.46 1.508 1.46.778 0 1.362-.251 1.752-.805.389-.555.875-1.411 1.362-2.62h1.557C49.144 17.582 46.857 20 43.889 20c-1.508 0-2.676-.403-3.406-1.159-.73-.755-1.12-1.813-1.12-3.123 0-.655.098-1.31.244-2.015.146-.705.243-1.26.243-1.713 0-1.26-.486-1.864-1.41-1.864-.439 0-.877.202-1.314.554l-1.07.907-1.655 8.161h-5.45L32.941.353h5.401L36.736 8.06l2.336-2.518 1.8-2.016c1.168-1.31 2.141-2.216 2.822-2.77C44.376.252 45.203 0 46.08 0c.875 0 1.557.252 1.995.705.437.504.632 1.109.632 1.864 0 .756-.195 1.36-.584 1.814-.39.453-.973.705-1.752.705-.778 0-1.313-.201-1.605-.655-.292-.453-.438-.755-.438-.957v-.403c-.73.453-1.362.957-1.898 1.612l-1.41 1.612c-.39.353-.78.806-1.169 1.21z"/><path d="M89.773 12.746c-1.557 4.786-3.892 7.204-6.958 7.204-1.41 0-2.53-.403-3.26-1.16-.778-.805-1.168-1.712-1.168-2.77s.293-2.871.828-5.44l1.654-7.708c-1.265 0-2.19.554-2.87 1.612-.633 1.108-1.217 2.72-1.655 4.886-.438 2.167-.827 3.88-1.12 5.038-.291 1.21-.632 2.217-1.07 3.023-.876 1.662-2.238 2.519-4.136 2.519-1.167 0-2.043-.303-2.676-.907-.632-.605-1.022-1.31-1.265-2.116-2.092 1.31-4.476 2.217-7.152 2.72-.828.152-1.655.252-2.482.252-1.8 0-3.26-.504-4.33-1.46-1.07-.958-1.606-2.419-1.606-4.384 0-1.964.243-3.677.73-5.138C53.134 2.972 56.346 0 60.773 0c3.212 0 4.818 2.065 4.818 6.196 0 4.434-1.07 8.06-3.26 10.781 1.41-.453 2.578-1.007 3.552-1.612.048-.856.291-1.562.68-2.065.39-.504.925-.756 1.558-.756.632 0 1.119.202 1.508.554.34.353.535.857.535 1.512 0 .604-.146 1.108-.438 1.36a1.135 1.135 0 01-1.021.352c0 .252.097.555.292.806.194.303.584.404 1.167.404.584 0 1.07-.202 1.46-.605.681-.756 1.217-2.116 1.557-4.08l.584-2.872c1.07-5.39 2.725-8.464 4.866-9.22a6.619 6.619 0 012.287-.402h5.498l-1.995 9.622-.681 2.972c-.146.756-.243 1.31-.243 1.612 0 1.109.486 1.612 1.508 1.612.778 0 1.362-.302 1.8-.906.438-.605.876-1.462 1.314-2.52h1.654zm-28.707.403c.973-2.267 1.46-4.786 1.46-7.658 0-1.108-.098-1.864-.293-2.368-.194-.503-.632-.755-1.216-.755-1.168 0-2.287 1.31-3.358 3.93-1.07 2.619-1.557 4.936-1.557 7.002 0 1.26.098 2.065.341 2.367.243.303.438.555.681.655.243.101.584.152 1.022.152.438 0 .925-.303 1.508-.857.487-.705.974-1.46 1.411-2.468z"/><path d="M100.088 16.322c-1.557 2.418-3.455 3.577-5.644 3.577-2.19 0-3.698-1.108-4.477-3.325-.292-.806-.438-1.713-.438-2.72 0-1.008.098-2.015.244-3.073.194-1.008.438-2.015.778-3.023.779-2.217 1.898-4.08 3.358-5.491C95.368.806 97.118.1 99.163.1c1.071 0 1.849.201 2.336.554a1.7 1.7 0 01.73 1.41v.303l.389-2.066h5.401l-2.676 13.2a6.486 6.486 0 00-.146 1.36c0 .906.535 1.31 1.557 1.31.341 0 .584-.051.827-.152-.535 1.46-.973 2.418-1.314 2.821-.632.756-1.459 1.108-2.481 1.108-1.022 0-1.8-.302-2.433-.957-.73-.604-1.119-1.511-1.265-2.67zM101.84 4.03c0-.252-.098-.554-.341-.907-.195-.352-.681-.554-1.362-.554-.682 0-1.363.403-2.044 1.159-1.606 1.864-2.579 4.534-2.968 8.01a19.022 19.022 0 00-.097 1.662c0 1.159.243 1.965.68 2.418.293.303.585.403 1.023.403.73 0 1.41-.302 2.043-.906.633-.605 1.022-1.461 1.265-2.52l1.801-8.765zm17.419 6.298c1.07 0 1.898-.907 1.898-1.965s-.876-1.965-1.898-1.965c-1.022 0-1.898.907-1.898 1.965s.828 1.965 1.898 1.965zm21.944 8.412v-.806c2.19-.201 2.336-.352 2.287-3.375l-.097-11.486h-.097l-6.666 15.466h-.536l-6.082-15.063h-.049l-.389 8.06c-.097 2.318-.097 3.577-.097 4.685.049 1.36.73 1.562 2.53 1.764v.806h-6.325v-.806c1.557-.202 2.141-.504 2.335-1.713.146-1.008.292-2.217.535-5.139l.39-5.844c.243-3.677.097-3.778-2.385-4.03V.453h4.477l6.228 14.106L143.539.453h4.622v.806c-2.384.202-2.578.302-2.53 3.174l.292 10.227c.097 2.972.146 3.123 2.53 3.375v.806h-7.25v-.1zm27.394-9.37c0 6.096-4.136 9.824-9.099 9.824s-8.855-3.98-8.855-9.37c0-5.089 3.454-9.774 9.147-9.774 4.671-.05 8.807 3.678 8.807 9.32zm-15.181-.403c0 5.29 2.822 9.169 6.666 9.169 3.017 0 5.742-2.62 5.742-8.06 0-5.945-3.017-9.119-6.569-9.119-3.065.05-5.839 2.77-5.839 8.01zm34.644 5.139c-.389 1.31-1.07 3.376-1.557 4.333-.779.201-3.065.755-5.012.755-6.763 0-9.731-4.836-9.731-9.32 0-5.944 4.428-9.823 10.51-9.823 2.189 0 4.038.604 4.817.755.194 1.613.389 2.72.535 4.283l-.827.201c-.73-2.972-2.336-4.181-5.304-4.181-4.574 0-6.958 3.98-6.958 8.262 0 5.29 3.017 8.866 7.153 8.866 2.773 0 4.233-1.561 5.595-4.383l.779.252zm15.814 4.634c-1.703 0-2.481-.906-3.26-2.62l-1.946-4.03c-1.119-2.367-2.19-2.619-4.039-2.619v5.693c0 2.418.244 2.569 2.336 2.72v.806h-6.909v-.806c2.092-.151 2.287-.352 2.287-2.72V3.728c0-2.217-.195-2.368-2.287-2.519V.403h6.909v.806c-2.092.151-2.336.302-2.336 2.519v4.836c1.898-.05 2.628-.302 3.504-1.158.876-.806 1.411-2.066 2.384-4.434C201.49.756 202.512 0 203.728 0c.925 0 1.46.554 1.46 1.108 0 .504-.535.806-1.119.857h-.584c-1.216 0-1.752 1.058-3.065 3.828-1.022 2.167-2.19 2.822-2.628 3.124v.1c1.265.404 2.287 1.059 3.212 2.62.535.907 1.265 2.418 2.14 4.08.974 1.815 1.703 2.167 3.066 2.268v.806h-2.336v-.05zm13.089-9.873c2.676.403 4.817 1.662 4.817 4.483 0 1.915-1.022 3.325-2.628 4.283-1.411.806-3.211 1.108-5.352 1.108h-6.033v-.806c2.335-.151 2.53-.353 2.53-2.72V3.878c0-2.317-.098-2.518-2.287-2.67V.403h7.007c2.043 0 3.26.353 4.087.958.973.654 1.508 1.914 1.508 3.224 0 2.67-2.141 3.778-3.698 4.181v.1h.049zm-3.066-.353c3.017 0 4.234-1.26 4.234-3.627 0-1.914-1.022-3.627-3.601-3.627-.681 0-1.265.1-1.557.302-.243.151-.341.504-.341 1.41v5.542h1.265zm-1.265 6.7c0 2.016.536 2.57 2.239 2.57 2.238-.05 4.233-1.21 4.233-4.131 0-2.922-1.898-4.182-5.255-4.182h-1.265v5.743h.048zm21.653 3.526v-.805c1.703-.202 1.946-.454 1.606-1.562-.341-1.109-.876-2.62-1.509-4.333h-5.79c-.438 1.26-.827 2.469-1.216 3.628-.584 1.763-.341 2.065 1.703 2.267v.806h-5.936v-.806c1.703-.252 2.092-.403 3.065-2.922L231.852.202l.876-.202c1.703 4.836 3.503 10.227 5.255 15.113.876 2.419 1.217 2.67 3.017 2.872v.806h-6.715v-.05zm-2.627-15.062h-.049c-.876 2.418-1.752 4.886-2.579 7.204h5.012l-2.384-7.204z"/></g><defs><clipPath id="clip0_152_366"><path fill="#fff" d="M0 0h241v20H0z"/></clipPath></defs></svg>