<svg xmlns="http://www.w3.org/2000/svg" width="892" height="892"><path fill="#949494" d="M659.5 607h-427V285h427v322zm-407-20h387V305h-387v282z"/><path fill="#949494" d="M607 560.4c.3 2.7-2.8 3.6-5.4 3.7-1.9.1-206.9.1-307.4.1-2.8 0-7.1.3-8.8-2.1-3-4.2 9-57.3 13.6-77.6 6.3-27.7 13.3-55.1 24.6-81.2 4.1-9.5 8.8-18.8 16-26.4 8.5-9 17.9-9.6 27.5-2.1 10.8 8.5 17.1 20.5 22.7 32.8 9.6 21.2 18.2 43 27.4 64.4 3.8 8.7 8.2 17 13.6 24.8 12.3 17.6 28.7 10.3 37.2-.1 5.7-7.1 9.5-15.5 13.5-23.6 2.2-4.6 4.6-9.1 8-12.9 5.9-6.8 12.1-8.2 20-4.2 7.7 3.8 14.3 9.5 20.5 15.5 26.8 25.7 50.5 54.5 73.4 83.8 0-.3 3.5 3.5 3.6 5.1z"/><circle fill="#949494" cx="562.2" cy="369.8" r="42"/></svg>